<svg viewBox="NaN NaN NaN NaN" xmlns:xlink="http://www.w3.org/1999/xlink" xmlns="http://www.w3.org/2000/svg" version="1.1" id="svg" style="max-height: 500px" width="NaN" height="NaN"><g id="svgg"><path data-index="0" fill-rule="evenodd" fill="#fa771d" stroke="none" d="M106.800 168.698 C 101.496 168.986,96.675 170.681,92.162 173.843 C 85.637 178.416,81.023 186.441,80.731 193.725 L 80.600 197.000 87.800 197.000 L 95.000 197.000 95.110 190.217 C 95.171 186.487,95.388 183.331,95.594 183.204 C 96.796 182.461,111.865 183.055,114.643 183.955 C 120.878 185.974,123.399 189.205,123.341 195.100 C 123.321 197.135,123.378 198.800,123.466 198.800 C 123.555 198.800,124.108 198.485,124.695 198.100 C 125.530 197.552,126.936 197.357,131.181 197.200 L 136.600 197.000 136.736 195.400 C 137.648 184.625,126.563 171.547,114.600 169.285 C 111.770 168.750,109.284 168.563,106.800 168.698 M98.400 185.153 L 97.000 185.400 97.000 191.200 L 97.000 197.000 99.800 197.227 C 103.371 197.517,104.794 198.284,106.803 201.004 C 110.843 206.473,117.965 206.564,119.983 201.173 C 122.970 193.194,120.986 188.027,114.200 186.115 C 109.701 184.847,102.584 184.413,98.400 185.153 M153.862 188.981 C 153.718 189.358,153.600 192.101,153.600 195.077 L 153.600 200.488 157.914 200.341 C 161.668 200.212,162.379 200.075,163.387 199.282 C 166.956 196.474,166.683 191.703,162.823 189.442 C 160.940 188.340,154.241 187.995,153.862 188.981 M168.800 194.373 L 168.800 200.400 170.011 200.400 L 171.221 200.400 171.111 194.500 L 171.000 188.600 169.900 188.473 L 168.800 188.347 168.800 194.373 M178.083 188.661 C 173.081 189.746,172.852 197.809,177.760 200.038 C 182.174 202.042,185.859 200.204,185.528 196.162 C 185.317 193.591,183.448 193.850,183.279 196.473 C 182.990 200.957,176.600 198.907,176.600 194.330 C 176.600 191.099,180.378 189.130,183.199 190.892 C 184.386 191.634,185.694 190.322,184.729 189.357 C 184.070 188.698,179.918 188.263,178.083 188.661 M188.800 194.373 L 188.800 200.400 190.011 200.400 L 191.221 200.400 191.111 194.500 L 191.000 188.600 189.900 188.473 L 188.800 188.347 188.800 194.373 M193.429 189.068 C 193.095 189.938,193.848 190.386,195.657 190.394 C 197.516 190.402,197.600 190.647,197.600 196.033 L 197.600 200.400 198.800 200.400 L 200.000 200.400 200.000 195.400 L 200.000 190.400 201.776 190.400 C 203.665 190.400,204.153 190.064,203.759 189.036 C 203.384 188.061,193.804 188.091,193.429 189.068 M209.303 188.880 C 209.068 189.166,208.424 190.390,207.872 191.600 C 203.286 201.660,203.679 200.400,205.126 200.400 C 206.019 200.400,206.390 200.110,206.919 199.000 L 207.587 197.600 210.519 197.600 L 213.452 197.600 214.119 199.000 C 214.661 200.135,215.011 200.400,215.974 200.400 L 217.161 200.400 215.161 195.900 C 211.788 188.308,210.774 187.092,209.303 188.880 M219.451 189.012 C 219.313 189.371,219.200 192.081,219.200 195.033 L 219.200 200.400 223.600 200.400 C 227.733 200.400,228.000 200.352,228.000 199.600 C 228.000 198.885,227.733 198.800,225.476 198.800 C 221.750 198.800,221.637 198.640,221.509 193.200 C 221.406 188.856,221.353 188.593,220.551 188.479 C 220.050 188.407,219.599 188.626,219.451 189.012 M235.443 189.033 C 235.309 189.381,235.200 192.081,235.200 195.033 L 235.200 200.400 236.400 200.400 C 237.491 200.400,237.600 200.280,237.600 199.080 C 237.600 196.154,240.127 195.878,242.000 198.600 C 243.014 200.074,243.461 200.400,244.468 200.400 C 245.670 200.400,245.683 200.380,245.043 199.500 C 243.451 197.312,243.391 196.862,244.532 195.671 C 245.847 194.298,246.027 191.416,244.885 190.006 C 243.646 188.475,235.961 187.683,235.443 189.033 M249.080 188.654 C 248.926 188.807,248.800 191.513,248.800 194.667 L 248.800 200.400 253.400 200.400 C 257.733 200.400,258.000 200.354,258.000 199.600 C 258.000 198.886,257.732 198.799,255.500 198.795 C 251.612 198.786,251.135 198.566,251.279 196.848 L 251.400 195.400 254.100 195.282 C 256.449 195.179,256.800 195.064,256.800 194.400 C 256.800 193.736,256.449 193.621,254.100 193.518 L 251.400 193.400 251.279 191.952 C 251.136 190.248,251.623 190.014,255.329 190.005 C 257.331 190.001,257.640 189.901,257.525 189.300 C 257.385 188.571,249.747 187.986,249.080 188.654 M263.800 188.965 C 256.913 192.026,261.007 202.397,268.335 200.452 C 270.784 199.802,271.607 199.036,270.763 198.192 C 270.219 197.648,270.019 197.652,268.855 198.232 C 264.311 200.499,260.316 194.326,264.300 191.193 C 265.395 190.331,265.654 190.317,269.988 190.873 C 270.675 190.962,271.018 190.785,271.118 190.292 C 271.433 188.736,266.378 187.819,263.800 188.965 M274.680 188.654 C 274.526 188.807,274.400 191.513,274.400 194.667 L 274.400 200.400 279.000 200.400 C 283.333 200.400,283.600 200.354,283.600 199.600 C 283.600 198.886,283.332 198.799,281.100 198.795 C 277.212 198.786,276.735 198.566,276.879 196.848 L 277.000 195.400 279.700 195.282 C 282.049 195.179,282.400 195.064,282.400 194.400 C 282.400 193.736,282.049 193.621,279.700 193.518 L 277.000 193.400 276.879 191.952 C 276.736 190.248,277.223 190.014,280.929 190.005 C 282.931 190.001,283.240 189.901,283.125 189.300 C 282.985 188.571,275.347 187.986,274.680 188.654 M286.643 189.033 C 286.509 189.381,286.400 192.081,286.400 195.033 L 286.400 200.400 287.600 200.400 C 288.700 200.400,288.800 200.286,288.800 199.027 C 288.800 197.500,288.942 197.418,292.317 196.989 C 296.318 196.481,298.322 192.768,296.085 190.006 C 294.846 188.475,287.161 187.683,286.643 189.033 M298.000 189.378 C 298.000 190.261,298.185 190.368,299.900 190.478 L 301.800 190.600 301.912 195.500 L 302.025 200.400 303.200 200.400 L 304.375 200.400 304.488 195.500 L 304.600 190.600 306.500 190.478 C 308.215 190.368,308.400 190.261,308.400 189.378 L 308.400 188.400 303.200 188.400 L 298.000 188.400 298.000 189.378 M310.667 188.667 C 310.520 188.813,310.400 191.513,310.400 194.667 L 310.400 200.400 311.600 200.400 L 312.800 200.400 312.800 194.400 L 312.800 188.400 311.867 188.400 C 311.353 188.400,310.813 188.520,310.667 188.667 M319.208 189.078 C 315.207 191.153,314.862 197.290,318.615 199.609 C 325.810 204.056,333.029 194.489,326.281 189.451 C 324.765 188.319,321.049 188.123,319.208 189.078 M332.000 194.400 L 332.000 200.400 333.000 200.400 C 333.959 200.400,334.000 200.299,334.005 197.900 C 334.017 192.711,334.294 192.649,337.959 197.014 C 339.905 199.331,340.929 200.235,341.717 200.327 L 342.800 200.453 342.800 194.427 L 342.800 188.400 341.843 188.400 C 340.624 188.400,340.400 189.025,340.400 192.433 C 340.400 195.946,339.977 195.982,337.303 192.700 C 332.215 186.456,332.000 186.525,332.000 194.400 M161.362 190.855 C 163.660 191.903,164.098 195.939,162.103 197.686 C 161.159 198.513,157.855 198.964,156.815 198.408 C 155.994 197.969,155.529 191.404,156.267 190.667 C 156.702 190.231,160.282 190.364,161.362 190.855 M242.426 190.814 C 243.750 191.522,243.498 194.179,242.051 194.779 C 238.853 196.104,236.568 194.067,237.762 190.954 C 238.017 190.290,241.264 190.192,242.426 190.814 M293.626 190.814 C 294.950 191.522,294.698 194.179,293.251 194.779 C 290.053 196.104,287.768 194.067,288.962 190.954 C 289.217 190.290,292.464 190.192,293.626 190.814 M325.345 191.455 C 326.808 192.917,326.869 196.220,325.457 197.546 C 323.588 199.303,319.926 198.904,318.812 196.822 C 316.560 192.615,322.020 188.129,325.345 191.455 M211.723 193.100 C 212.705 195.840,212.647 196.000,210.667 196.000 C 208.434 196.000,208.315 195.839,209.085 193.855 C 210.333 190.637,210.793 190.505,211.723 193.100 M132.532 199.162 L 125.664 199.400 122.732 202.241 C 116.115 208.651,108.944 208.382,104.875 201.569 C 103.473 199.222,103.320 199.200,88.043 199.200 C 72.349 199.200,71.759 199.309,73.228 201.927 L 73.830 203.000 88.615 203.200 C 104.928 203.421,104.598 203.370,107.500 206.123 C 109.889 208.390,108.299 208.802,105.272 206.700 L 103.400 205.400 92.900 205.281 C 82.491 205.164,82.400 205.170,82.400 205.995 C 82.400 206.839,83.440 208.755,84.191 209.294 C 84.890 209.796,120.501 209.660,122.040 209.149 C 122.788 208.900,124.403 207.722,125.630 206.531 C 128.610 203.635,130.145 203.200,137.384 203.200 C 143.473 203.200,144.000 203.038,144.000 201.169 C 144.000 198.996,142.898 198.803,132.532 199.162 M129.426 205.817 C 128.780 206.154,127.413 207.214,126.388 208.172 C 122.971 211.369,124.231 211.200,103.820 211.200 C 93.413 211.200,85.600 211.353,85.600 211.557 C 85.600 211.753,86.185 212.644,86.900 213.536 L 88.200 215.159 108.633 215.179 L 129.066 215.200 130.772 212.900 C 135.255 206.859,135.680 205.199,132.743 205.202 C 131.565 205.204,130.071 205.481,129.426 205.817 M92.050 217.125 L 90.700 217.400 92.450 218.646 C 101.068 224.785,112.884 225.232,122.639 219.790 C 127.376 217.147,127.554 217.200,113.911 217.200 C 107.208 217.200,99.851 217.121,97.562 217.025 C 95.273 216.929,92.793 216.974,92.050 217.125" id="path0"/><path data-index="2" fill-rule="evenodd" fill="#f9c09d" stroke="none" d="M105.700 168.276 C 106.085 168.376,106.715 168.376,107.100 168.276 C 107.485 168.175,107.170 168.093,106.400 168.093 C 105.630 168.093,105.315 168.175,105.700 168.276 M95.680 183.680 C 95.338 184.022,95.225 186.064,95.285 190.780 L 95.371 197.400 95.585 190.600 L 95.800 183.800 97.600 183.560 L 99.400 183.320 97.780 183.260 C 96.889 183.227,95.944 183.416,95.680 183.680 M103.091 184.689 C 103.801 184.777,105.061 184.779,105.891 184.692 C 106.721 184.605,106.140 184.533,104.600 184.531 C 103.060 184.529,102.381 184.600,103.091 184.689 M96.561 191.200 C 96.561 194.610,96.622 196.005,96.697 194.300 C 96.772 192.595,96.772 189.805,96.697 188.100 C 96.622 186.395,96.561 187.790,96.561 191.200 M119.200 186.525 C 119.200 186.594,119.785 187.179,120.500 187.825 L 121.800 189.000 120.625 187.700 C 119.530 186.488,119.200 186.216,119.200 186.525 M221.923 192.918 C 221.991 195.603,222.171 197.927,222.323 198.082 C 222.476 198.236,222.544 196.166,222.477 193.482 C 222.409 190.797,222.229 188.473,222.077 188.318 C 221.924 188.164,221.856 190.234,221.923 192.918 M257.952 189.287 C 258.137 190.398,258.193 190.455,258.319 189.654 C 258.401 189.133,258.303 188.543,258.101 188.341 C 257.879 188.119,257.821 188.493,257.952 189.287 M283.552 189.287 C 283.737 190.398,283.793 190.455,283.919 189.654 C 284.001 189.133,283.903 188.543,283.701 188.341 C 283.479 188.119,283.421 188.493,283.552 189.287 M313.199 194.319 L 313.397 200.600 313.510 194.631 C 313.572 191.348,313.482 188.522,313.311 188.350 C 313.140 188.178,313.089 190.864,313.199 194.319 M331.376 188.518 C 331.267 188.802,331.228 191.727,331.290 195.018 L 331.403 201.000 331.602 194.499 C 331.797 188.109,331.773 187.484,331.376 188.518 M171.362 194.600 C 171.362 198.120,171.424 199.506,171.498 197.681 C 171.572 195.856,171.572 192.976,171.497 191.281 C 171.422 189.586,171.361 191.080,171.362 194.600 M191.362 194.600 C 191.362 198.120,191.424 199.506,191.498 197.681 C 191.572 195.856,191.572 192.976,191.497 191.281 C 191.422 189.586,191.361 191.080,191.362 194.600 M185.177 189.308 C 185.631 189.910,185.600 190.148,184.970 190.908 L 184.230 191.800 185.202 190.902 C 186.157 190.020,186.160 189.990,185.409 189.302 C 184.679 188.632,184.668 188.632,185.177 189.308 M310.160 194.600 C 310.161 197.900,310.222 199.197,310.298 197.482 C 310.373 195.767,310.372 193.067,310.297 191.482 C 310.221 189.897,310.159 191.300,310.160 194.600 M153.359 194.800 C 153.359 197.990,153.421 199.295,153.497 197.700 C 153.573 196.105,153.573 193.495,153.497 191.900 C 153.421 190.305,153.359 191.610,153.359 194.800 M218.959 194.800 C 218.959 197.990,219.021 199.295,219.097 197.700 C 219.173 196.105,219.173 193.495,219.097 191.900 C 219.021 190.305,218.959 191.610,218.959 194.800 M234.959 194.800 C 234.959 197.990,235.021 199.295,235.097 197.700 C 235.173 196.105,235.173 193.495,235.097 191.900 C 235.021 190.305,234.959 191.610,234.959 194.800 M286.159 194.800 C 286.159 197.990,286.221 199.295,286.297 197.700 C 286.373 196.105,286.373 193.495,286.297 191.900 C 286.221 190.305,286.159 191.610,286.159 194.800 M193.166 190.526 C 193.347 190.707,194.193 190.793,195.047 190.719 L 196.600 190.583 194.719 190.390 C 193.684 190.284,192.985 190.345,193.166 190.526 M200.267 190.667 C 200.120 190.813,200.003 191.128,200.006 191.367 C 200.010 191.644,200.120 191.630,200.313 191.328 C 200.478 191.068,201.420 190.784,202.407 190.697 L 204.200 190.540 202.367 190.470 C 201.358 190.431,200.413 190.520,200.267 190.667 M298.200 190.603 C 299.114 190.921,301.529 191.009,301.348 190.716 C 301.241 190.542,300.398 190.414,299.476 190.432 C 298.554 190.449,297.980 190.526,298.200 190.603 M305.052 190.716 C 304.944 190.890,305.518 190.967,306.328 190.887 C 308.542 190.669,308.805 190.467,306.924 190.432 C 306.002 190.414,305.159 190.542,305.052 190.716 M156.464 194.476 C 156.429 196.388,156.535 198.037,156.700 198.139 C 156.865 198.242,156.950 197.218,156.889 195.863 C 156.689 191.452,156.529 190.930,156.464 194.476 M196.954 196.000 C 196.954 198.750,197.018 199.875,197.096 198.500 C 197.174 197.125,197.174 194.875,197.096 193.500 C 197.018 192.125,196.954 193.250,196.954 196.000 M238.109 192.800 C 238.109 193.790,238.187 194.195,238.282 193.700 C 238.378 193.205,238.378 192.395,238.282 191.900 C 238.187 191.405,238.109 191.810,238.109 192.800 M289.309 192.800 C 289.309 193.790,289.387 194.195,289.482 193.700 C 289.578 193.205,289.578 192.395,289.482 191.900 C 289.387 191.405,289.309 191.810,289.309 192.800 M246.093 192.800 C 246.093 193.570,246.175 193.885,246.276 193.500 C 246.376 193.115,246.376 192.485,246.276 192.100 C 246.175 191.715,246.093 192.030,246.093 192.800 M297.293 192.800 C 297.293 193.570,297.375 193.885,297.476 193.500 C 297.576 193.115,297.576 192.485,297.476 192.100 C 297.375 191.715,297.293 192.030,297.293 192.800 M254.186 193.098 C 255.499 193.179,256.849 193.460,257.186 193.723 C 257.724 194.141,257.732 194.113,257.251 193.500 C 256.821 192.952,256.171 192.816,254.251 192.876 L 251.800 192.951 254.186 193.098 M279.786 193.098 C 281.099 193.179,282.449 193.460,282.786 193.723 C 283.324 194.141,283.332 194.113,282.851 193.500 C 282.421 192.952,281.771 192.816,279.851 192.876 L 277.400 192.951 279.786 193.098 M318.556 193.371 C 318.435 193.685,318.404 194.360,318.486 194.871 C 318.595 195.554,318.688 195.404,318.837 194.300 C 319.047 192.747,318.936 192.381,318.556 193.371 M315.293 194.400 C 315.293 195.170,315.375 195.485,315.476 195.100 C 315.576 194.715,315.576 194.085,315.476 193.700 C 315.375 193.315,315.293 193.630,315.293 194.400 M184.382 194.224 C 185.517 194.439,185.569 194.544,185.715 196.924 L 185.867 199.400 185.834 196.800 L 185.800 194.200 184.500 194.100 C 183.252 194.004,183.248 194.009,184.382 194.224 M208.934 194.627 C 208.585 195.538,209.332 196.088,210.651 195.891 C 211.744 195.728,211.734 195.717,210.453 195.660 C 209.316 195.609,209.139 195.476,209.316 194.800 C 209.563 193.854,209.280 193.725,208.934 194.627 M182.901 196.200 C 182.905 197.080,182.987 197.393,183.083 196.895 C 183.179 196.398,183.175 195.678,183.075 195.295 C 182.975 194.913,182.896 195.320,182.901 196.200 M256.980 195.178 C 256.771 195.386,255.520 195.622,254.200 195.702 L 251.800 195.849 254.251 195.924 C 256.014 195.979,256.842 195.832,257.200 195.400 C 257.747 194.740,257.585 194.576,256.980 195.178 M282.580 195.178 C 282.371 195.386,281.120 195.622,279.800 195.702 L 277.400 195.849 279.851 195.924 C 281.614 195.979,282.442 195.832,282.800 195.400 C 283.347 194.740,283.185 194.576,282.580 195.178 M209.091 198.289 C 209.801 198.377,211.061 198.379,211.891 198.292 C 212.721 198.205,212.140 198.133,210.600 198.131 C 209.060 198.129,208.381 198.200,209.091 198.289 M238.093 199.200 C 238.093 199.970,238.175 200.285,238.276 199.900 C 238.376 199.515,238.376 198.885,238.276 198.500 C 238.175 198.115,238.093 198.430,238.093 199.200 M289.293 199.200 C 289.293 199.970,289.375 200.285,289.476 199.900 C 289.576 199.515,289.576 198.885,289.476 198.500 C 289.375 198.115,289.293 198.430,289.293 199.200 M82.517 198.697 C 84.011 198.774,86.351 198.774,87.717 198.696 C 89.082 198.618,87.860 198.555,85.000 198.555 C 82.140 198.556,81.022 198.620,82.517 198.697 M97.300 198.691 C 98.125 198.778,99.475 198.778,100.300 198.691 C 101.125 198.605,100.450 198.534,98.800 198.534 C 97.150 198.534,96.475 198.605,97.300 198.691 M127.300 198.687 C 127.905 198.778,128.895 198.778,129.500 198.687 C 130.105 198.595,129.610 198.520,128.400 198.520 C 127.190 198.520,126.695 198.595,127.300 198.687 M228.200 199.600 C 228.200 200.218,228.335 200.640,228.500 200.538 C 228.665 200.436,228.800 200.014,228.800 199.600 C 228.800 199.186,228.665 198.764,228.500 198.662 C 228.335 198.560,228.200 198.982,228.200 199.600 M122.587 201.700 L 120.200 204.200 122.700 201.813 C 125.022 199.595,125.383 199.200,125.087 199.200 C 125.026 199.200,123.901 200.325,122.587 201.700 M180.305 201.083 C 180.802 201.179,181.522 201.175,181.905 201.075 C 182.287 200.975,181.880 200.896,181.000 200.901 C 180.120 200.905,179.807 200.987,180.305 201.083 M321.700 201.076 C 322.085 201.176,322.715 201.176,323.100 201.076 C 323.485 200.975,323.170 200.893,322.400 200.893 C 321.630 200.893,321.315 200.975,321.700 201.076 M74.345 203.705 C 74.513 203.873,80.849 203.963,88.425 203.905 L 102.200 203.799 88.120 203.600 C 80.375 203.490,74.177 203.537,74.345 203.705 M134.082 203.896 C 135.558 203.973,138.078 203.973,139.682 203.897 C 141.287 203.821,140.080 203.758,137.000 203.758 C 133.920 203.757,132.607 203.819,134.082 203.896 M93.328 209.900 C 98.568 209.963,107.028 209.963,112.128 209.900 C 117.227 209.836,112.940 209.785,102.600 209.785 C 92.260 209.785,88.087 209.837,93.328 209.900 M84.978 211.235 C 84.831 211.474,84.921 211.879,85.179 212.135 C 85.536 212.489,85.585 212.435,85.384 211.907 C 85.138 211.263,85.833 211.206,95.260 211.100 L 105.400 210.986 95.324 210.893 C 88.405 210.829,85.163 210.936,84.978 211.235 M113.916 211.097 C 115.299 211.175,117.459 211.174,118.716 211.095 C 119.972 211.016,118.840 210.952,116.200 210.953 C 113.560 210.953,112.532 211.018,113.916 211.097 M98.728 215.900 C 104.298 215.963,113.298 215.962,118.728 215.900 C 124.158 215.837,119.600 215.785,108.600 215.786 C 97.600 215.786,93.158 215.837,98.728 215.900" id="path2"/><path data-index="4" fill-rule="evenodd" fill="#f4ac84" stroke="none" d="M106.200 168.388 C 105.098 168.578,105.844 168.665,108.600 168.670 C 111.622 168.675,112.209 168.599,111.000 168.361 C 109.169 168.001,108.433 168.005,106.200 168.388 M101.400 169.200 C 100.381 169.638,101.432 169.638,102.800 169.200 C 103.604 168.943,103.643 168.877,103.000 168.868 C 102.560 168.862,101.840 169.011,101.400 169.200 M114.400 169.200 C 115.768 169.638,116.819 169.638,115.800 169.200 C 115.360 169.011,114.640 168.862,114.200 168.868 C 113.557 168.877,113.596 168.943,114.400 169.200 M89.071 176.100 L 86.534 178.600 88.967 176.427 C 90.305 175.232,91.571 174.107,91.780 173.927 C 91.989 173.747,92.036 173.600,91.884 173.600 C 91.732 173.600,90.466 174.725,89.071 176.100 M126.937 175.242 C 128.002 176.209,129.532 177.728,130.337 178.618 C 131.142 179.507,131.536 179.867,131.214 179.418 C 130.142 177.923,127.416 175.146,126.200 174.310 C 125.540 173.856,125.872 174.276,126.937 175.242 M85.528 179.900 C 84.680 180.896,83.081 183.618,83.254 183.770 C 83.334 183.841,84.069 182.842,84.887 181.549 C 86.399 179.162,86.602 178.639,85.528 179.900 M132.360 181.400 C 133.034 182.705,133.588 183.428,133.585 183.000 C 133.583 182.780,133.214 182.150,132.764 181.600 C 132.221 180.936,132.085 180.869,132.360 181.400 M102.700 183.095 C 103.855 183.176,105.745 183.176,106.900 183.095 C 108.055 183.014,107.110 182.948,104.800 182.948 C 102.490 182.948,101.545 183.014,102.700 183.095 M110.833 183.347 C 110.925 183.428,111.720 183.604,112.600 183.738 C 113.715 183.907,113.958 183.871,113.400 183.619 C 112.632 183.271,110.490 183.044,110.833 183.347 M134.330 185.182 C 134.698 186.051,135.056 186.604,135.124 186.409 C 135.250 186.049,134.113 183.600,133.819 183.600 C 133.731 183.600,133.961 184.312,134.330 185.182 M96.800 185.120 C 96.800 185.296,97.430 185.366,98.200 185.276 C 98.970 185.186,99.600 185.042,99.600 184.956 C 99.600 184.870,98.970 184.800,98.200 184.800 C 97.430 184.800,96.800 184.944,96.800 185.120 M110.000 185.200 C 110.550 185.376,111.360 185.520,111.800 185.520 C 112.433 185.520,112.392 185.454,111.600 185.200 C 111.050 185.024,110.240 184.880,109.800 184.880 C 109.167 184.880,109.208 184.946,110.000 185.200 M81.415 187.815 C 81.030 188.824,80.804 189.737,80.913 189.846 C 81.021 189.955,81.400 189.193,81.754 188.154 C 82.590 185.699,82.325 185.434,81.415 187.815 M116.000 186.535 C 116.000 186.806,118.874 188.459,119.046 188.287 C 119.126 188.208,118.473 187.739,117.596 187.246 C 116.718 186.752,116.000 186.433,116.000 186.535 M120.597 187.601 C 122.493 189.818,122.520 189.842,122.086 189.000 C 121.859 188.560,121.162 187.751,120.537 187.201 L 119.400 186.203 120.597 187.601 M153.784 188.427 C 153.639 188.661,153.628 188.961,153.760 189.093 C 153.892 189.225,154.000 189.099,154.000 188.812 C 154.000 188.406,154.860 188.335,157.900 188.491 C 160.045 188.600,161.440 188.548,161.000 188.373 C 159.785 187.892,154.088 187.934,153.784 188.427 M168.576 188.518 C 168.467 188.804,168.427 191.639,168.489 194.818 L 168.600 200.600 169.800 200.637 C 170.932 200.672,170.938 200.665,169.900 200.512 L 168.800 200.349 168.800 194.329 L 168.800 188.309 170.000 188.485 C 170.660 188.582,171.200 188.513,171.200 188.331 C 171.200 187.786,168.791 187.958,168.576 188.518 M178.138 188.306 C 177.884 188.468,179.092 188.600,180.823 188.600 C 182.554 188.600,183.662 188.478,183.285 188.328 C 182.353 187.958,178.709 187.943,178.138 188.306 M188.576 188.518 C 188.467 188.804,188.427 191.639,188.489 194.818 L 188.600 200.600 189.800 200.637 C 190.932 200.672,190.938 200.665,189.900 200.512 L 188.800 200.349 188.800 194.329 L 188.800 188.309 190.000 188.485 C 190.660 188.582,191.200 188.513,191.200 188.331 C 191.200 187.786,188.791 187.958,188.576 188.518 M193.202 188.796 C 192.727 189.684,192.962 190.404,193.724 190.394 C 194.063 190.390,194.052 190.294,193.686 190.062 C 193.403 189.882,193.288 189.436,193.429 189.068 C 193.730 188.284,203.356 188.043,203.737 188.810 C 203.849 189.036,203.894 188.990,203.837 188.710 C 203.637 187.714,193.738 187.795,193.202 188.796 M209.067 188.267 C 208.920 188.413,208.800 188.719,208.800 188.947 C 208.800 189.194,208.993 189.167,209.280 188.880 C 210.038 188.122,211.526 188.315,212.018 189.234 C 212.264 189.693,212.569 189.964,212.697 189.837 C 212.824 189.709,212.602 189.244,212.202 188.802 C 211.505 188.032,209.623 187.711,209.067 188.267 M219.485 188.248 C 219.328 188.405,219.203 188.728,219.206 188.967 C 219.209 189.205,219.366 189.157,219.554 188.861 C 220.712 187.033,221.399 188.551,221.514 193.199 C 221.577 195.723,221.757 197.917,221.914 198.076 C 222.071 198.234,222.110 196.077,222.000 193.282 L 221.800 188.200 220.785 188.082 C 220.227 188.017,219.642 188.092,219.485 188.248 M235.384 188.427 C 235.239 188.661,235.228 188.961,235.360 189.093 C 235.492 189.225,235.600 189.097,235.600 188.808 C 235.600 188.396,236.445 188.325,239.500 188.481 C 241.645 188.590,242.860 188.547,242.200 188.387 C 240.304 187.925,235.677 187.952,235.384 188.427 M248.848 188.542 C 248.523 188.934,248.412 190.886,248.489 194.855 L 248.600 200.600 253.500 200.712 L 258.400 200.825 258.400 199.612 L 258.400 198.400 255.300 198.479 L 252.200 198.559 255.100 198.697 C 257.665 198.819,258.000 198.926,258.000 199.618 C 258.000 200.349,257.699 200.400,253.389 200.400 L 248.779 200.400 248.889 194.500 L 249.000 188.600 253.195 188.600 C 256.827 188.600,257.407 188.691,257.520 189.281 C 257.631 189.858,257.236 189.984,254.926 190.103 L 252.200 190.243 255.127 190.322 L 258.053 190.400 257.927 189.300 L 257.800 188.200 253.560 188.087 C 250.281 188.000,249.213 188.103,248.848 188.542 M264.483 188.340 C 264.193 188.524,264.904 188.591,266.094 188.492 C 268.879 188.261,271.392 189.222,271.084 190.400 C 270.969 190.840,271.038 191.100,271.237 190.977 C 271.974 190.522,271.564 189.566,270.300 188.796 C 268.953 187.975,265.487 187.703,264.483 188.340 M274.448 188.542 C 274.123 188.934,274.012 190.886,274.089 194.855 L 274.200 200.600 279.100 200.712 L 284.000 200.825 284.000 199.612 L 284.000 198.400 280.900 198.479 L 277.800 198.559 280.700 198.697 C 283.265 198.819,283.600 198.926,283.600 199.618 C 283.600 200.349,283.299 200.400,278.989 200.400 L 274.379 200.400 274.489 194.500 L 274.600 188.600 278.795 188.600 C 282.427 188.600,283.007 188.691,283.120 189.281 C 283.231 189.858,282.836 189.984,280.526 190.103 L 277.800 190.243 280.727 190.322 L 283.653 190.400 283.527 189.300 L 283.400 188.200 279.160 188.087 C 275.881 188.000,274.813 188.103,274.448 188.542 M286.584 188.427 C 286.439 188.661,286.428 188.961,286.560 189.093 C 286.692 189.225,286.800 189.097,286.800 188.808 C 286.800 188.396,287.645 188.325,290.700 188.481 C 292.845 188.590,294.060 188.547,293.400 188.387 C 291.504 187.925,286.877 187.952,286.584 188.427 M297.758 188.565 C 297.634 188.889,297.617 189.479,297.720 189.877 C 297.842 190.350,297.923 190.220,297.954 189.500 L 298.000 188.400 303.173 188.400 C 308.223 188.400,308.351 188.422,308.512 189.300 C 308.656 190.083,308.672 190.070,308.639 189.200 L 308.600 188.200 303.292 188.088 C 298.917 187.996,297.944 188.080,297.758 188.565 M310.400 188.305 C 310.400 188.501,310.940 188.582,311.600 188.485 L 312.800 188.309 312.800 194.329 L 312.800 200.349 311.500 200.511 C 310.229 200.668,310.233 200.673,311.710 200.736 L 313.220 200.800 313.110 194.500 L 313.000 188.200 311.700 188.075 C 310.985 188.006,310.400 188.110,310.400 188.305 M320.138 188.306 C 319.884 188.468,320.902 188.600,322.400 188.600 C 323.898 188.600,324.916 188.468,324.662 188.306 C 324.408 188.144,323.390 188.012,322.400 188.012 C 321.410 188.012,320.392 188.144,320.138 188.306 M331.867 188.267 C 331.720 188.413,331.600 191.293,331.600 194.667 L 331.600 200.800 333.000 200.800 L 334.400 200.800 334.321 197.700 L 334.241 194.600 334.103 197.500 C 333.971 200.275,333.923 200.400,332.982 200.400 L 332.000 200.400 332.000 194.400 C 332.000 187.619,332.351 187.015,334.735 189.700 C 337.555 192.877,338.352 193.610,336.582 191.400 C 333.922 188.078,332.800 187.333,331.867 188.267 M340.497 188.463 C 340.192 188.768,340.000 190.086,340.000 191.880 C 340.000 194.833,339.815 195.206,338.799 194.300 C 338.322 193.875,338.318 193.904,338.768 194.500 C 339.892 195.985,340.400 195.341,340.400 192.433 C 340.400 189.025,340.624 188.400,341.843 188.400 L 342.800 188.400 342.800 194.400 C 342.800 201.270,342.488 201.732,339.623 199.100 C 338.231 197.821,338.224 197.820,339.204 198.997 C 340.554 200.619,340.826 200.787,342.110 200.794 L 343.220 200.800 343.110 194.500 L 343.000 188.200 341.997 188.083 C 341.446 188.018,340.771 188.189,340.497 188.463 M119.612 189.076 C 119.606 189.338,119.777 189.662,119.994 189.796 C 120.210 189.930,120.648 190.885,120.966 191.920 C 121.372 193.240,121.552 193.502,121.570 192.800 C 121.584 192.250,121.152 191.080,120.610 190.200 C 120.068 189.320,119.619 188.814,119.612 189.076 M163.053 189.567 C 163.743 189.988,164.598 190.747,164.953 191.255 C 165.309 191.763,165.600 191.977,165.600 191.730 C 165.600 191.159,162.930 188.800,162.286 188.801 C 162.019 188.802,162.364 189.147,163.053 189.567 M184.809 189.346 C 185.312 190.009,185.271 190.175,184.443 190.846 C 183.930 191.261,183.683 191.600,183.894 191.600 C 185.006 191.600,185.770 189.997,184.995 189.288 C 184.278 188.632,184.270 188.634,184.809 189.346 M244.514 189.720 C 245.001 190.226,245.474 190.587,245.564 190.523 C 245.798 190.355,244.342 188.800,243.952 188.800 C 243.774 188.800,244.027 189.214,244.514 189.720 M261.775 190.100 L 260.600 191.400 261.998 190.200 C 262.767 189.540,263.472 188.955,263.565 188.900 C 263.657 188.845,263.557 188.800,263.342 188.800 C 263.126 188.800,262.421 189.385,261.775 190.100 M295.714 189.720 C 296.201 190.226,296.674 190.587,296.764 190.523 C 296.998 190.355,295.542 188.800,295.152 188.800 C 294.974 188.800,295.227 189.214,295.714 189.720 M317.570 189.900 L 316.600 191.000 317.800 190.000 C 318.460 189.450,319.075 188.955,319.167 188.900 C 319.258 188.845,319.155 188.800,318.936 188.800 C 318.718 188.800,318.103 189.295,317.570 189.900 M327.141 190.304 C 327.944 191.131,328.678 191.758,328.773 191.698 C 328.999 191.554,326.328 188.800,325.963 188.800 C 325.809 188.800,326.339 189.477,327.141 190.304 M136.068 190.000 C 136.088 191.039,136.718 192.746,136.732 191.800 C 136.738 191.360,136.589 190.640,136.400 190.200 C 136.189 189.710,136.061 189.632,136.068 190.000 M174.998 190.402 C 174.598 190.844,174.366 191.299,174.482 191.415 C 174.597 191.530,174.990 191.169,175.355 190.612 C 176.152 189.396,175.993 189.302,174.998 190.402 M156.267 190.667 C 155.898 191.035,155.929 197.909,156.300 198.140 C 156.465 198.242,156.541 196.803,156.470 194.940 C 156.385 192.720,156.505 191.356,156.819 190.977 C 157.287 190.414,156.796 190.138,156.267 190.667 M160.600 191.012 C 162.604 191.734,162.878 191.730,161.600 191.000 C 161.050 190.686,160.240 190.430,159.800 190.432 C 159.360 190.434,159.720 190.695,160.600 191.012 M196.720 190.880 C 197.039 191.199,197.200 192.942,197.200 196.080 L 197.200 200.800 198.700 200.736 C 200.177 200.673,200.180 200.669,198.900 200.511 L 197.600 200.349 197.600 196.007 C 197.600 191.502,197.419 190.400,196.677 190.400 C 196.385 190.400,196.399 190.559,196.720 190.880 M237.762 190.954 C 237.343 192.047,237.785 194.933,238.400 195.119 C 238.884 195.265,238.904 195.198,238.500 194.770 C 237.863 194.095,237.850 191.510,238.480 190.880 C 238.853 190.507,238.851 190.400,238.467 190.400 C 238.197 190.400,237.879 190.649,237.762 190.954 M241.366 190.817 C 242.007 191.009,242.679 191.399,242.860 191.683 C 243.101 192.063,243.189 192.071,243.194 191.714 C 243.201 191.117,241.909 190.388,240.926 190.434 C 240.501 190.455,240.683 190.613,241.366 190.817 M264.303 191.300 C 263.785 191.795,263.640 192.000,263.980 191.756 C 264.321 191.512,264.960 191.112,265.400 190.868 C 265.840 190.624,265.985 190.419,265.722 190.412 C 265.460 190.405,264.821 190.805,264.303 191.300 M268.800 191.000 C 269.350 191.314,269.980 191.572,270.200 191.572 C 270.420 191.572,270.150 191.314,269.600 191.000 C 269.050 190.686,268.420 190.428,268.200 190.428 C 267.980 190.428,268.250 190.686,268.800 191.000 M288.962 190.954 C 288.543 192.047,288.985 194.933,289.600 195.119 C 290.084 195.265,290.104 195.198,289.700 194.770 C 289.063 194.095,289.050 191.510,289.680 190.880 C 290.053 190.507,290.051 190.400,289.667 190.400 C 289.397 190.400,289.079 190.649,288.962 190.954 M292.566 190.817 C 293.207 191.009,293.879 191.399,294.060 191.683 C 294.301 192.063,294.389 192.071,294.394 191.714 C 294.401 191.117,293.109 190.388,292.126 190.434 C 291.701 190.455,291.883 190.613,292.566 190.817 M301.600 195.537 L 301.800 200.600 303.200 200.600 L 304.600 200.600 304.800 195.537 C 304.910 192.752,304.865 190.558,304.700 190.661 C 304.535 190.763,304.400 192.997,304.400 195.624 L 304.400 200.400 303.200 200.400 L 302.000 200.400 302.000 195.624 C 302.000 192.997,301.865 190.763,301.700 190.661 C 301.535 190.558,301.490 192.752,301.600 195.537 M320.092 191.021 C 319.605 191.362,319.013 192.037,318.776 192.521 L 318.346 193.400 319.073 192.512 C 319.473 192.023,320.160 191.354,320.600 191.025 C 321.661 190.230,321.225 190.227,320.092 191.021 M324.200 191.016 C 324.640 191.341,325.315 191.985,325.700 192.447 C 326.085 192.910,326.400 193.113,326.400 192.899 C 326.400 192.356,324.388 190.397,323.845 190.413 C 323.600 190.420,323.760 190.691,324.200 191.016 M209.992 191.810 C 209.714 192.145,209.602 192.535,209.743 192.676 C 209.884 192.818,210.000 192.723,210.000 192.467 C 210.000 192.210,210.270 192.000,210.600 192.000 C 210.930 192.000,211.200 191.820,211.200 191.600 C 211.200 191.006,210.568 191.116,209.992 191.810 M245.709 192.800 C 245.709 193.790,245.787 194.195,245.882 193.700 C 245.978 193.205,245.978 192.395,245.882 191.900 C 245.787 191.405,245.709 191.810,245.709 192.800 M296.909 192.800 C 296.909 193.790,296.987 194.195,297.082 193.700 C 297.178 193.205,297.178 192.395,297.082 191.900 C 296.987 191.405,296.909 191.810,296.909 192.800 M80.189 193.747 C 79.702 197.646,79.181 197.385,87.705 197.509 C 91.827 197.569,95.200 197.479,95.200 197.309 C 95.200 197.139,91.915 197.000,87.900 197.000 L 80.600 197.000 80.709 194.300 C 80.839 191.062,80.562 190.767,80.189 193.747 M260.249 192.215 C 260.112 192.573,260.015 193.166,260.034 193.533 C 260.053 193.900,260.227 193.669,260.421 193.020 C 260.798 191.758,260.665 191.133,260.249 192.215 M173.778 193.379 C 173.635 194.137,173.675 195.226,173.866 195.799 C 174.139 196.617,174.213 196.321,174.213 194.420 C 174.213 191.639,174.138 191.458,173.778 193.379 M165.800 194.400 C 165.800 195.458,165.932 196.116,166.094 195.862 C 166.256 195.608,166.388 194.950,166.388 194.400 C 166.388 193.850,166.256 193.192,166.094 192.938 C 165.932 192.684,165.800 193.342,165.800 194.400 M251.282 192.800 C 251.415 193.239,252.182 193.432,254.132 193.518 C 256.449 193.621,256.800 193.737,256.800 194.400 C 256.800 195.063,256.449 195.179,254.132 195.282 C 252.182 195.368,251.415 195.561,251.282 196.000 C 251.135 196.484,251.202 196.504,251.630 196.100 C 251.926 195.821,253.164 195.600,254.431 195.600 C 255.962 195.600,256.864 195.404,257.200 195.000 C 258.097 193.920,256.990 193.200,254.431 193.200 C 253.164 193.200,251.926 192.979,251.630 192.700 C 251.202 192.296,251.135 192.316,251.282 192.800 M276.882 192.800 C 277.015 193.239,277.782 193.432,279.732 193.518 C 282.049 193.621,282.400 193.737,282.400 194.400 C 282.400 195.063,282.049 195.179,279.732 195.282 C 277.782 195.368,277.015 195.561,276.882 196.000 C 276.735 196.484,276.802 196.504,277.230 196.100 C 277.526 195.821,278.764 195.600,280.031 195.600 C 282.590 195.600,283.697 194.880,282.800 193.800 C 282.464 193.396,281.562 193.200,280.031 193.200 C 278.764 193.200,277.526 192.979,277.230 192.700 C 276.802 192.296,276.735 192.316,276.882 192.800 M262.765 193.653 C 262.433 195.136,263.220 197.201,264.400 197.943 C 265.388 198.565,265.388 198.559,264.321 197.452 C 263.522 196.624,263.210 195.846,263.121 194.466 C 263.026 193.005,262.949 192.829,262.765 193.653 M315.709 194.400 C 315.709 195.390,315.787 195.795,315.882 195.300 C 315.978 194.805,315.978 193.995,315.882 193.500 C 315.787 193.005,315.709 193.410,315.709 194.400 M328.914 194.628 C 328.902 196.289,328.957 196.437,329.261 195.566 C 329.469 194.972,329.475 194.132,329.276 193.593 C 328.998 192.843,328.926 193.050,328.914 194.628 M123.301 194.600 C 123.305 195.480,123.387 195.793,123.483 195.295 C 123.579 194.798,123.575 194.078,123.475 193.695 C 123.375 193.313,123.296 193.720,123.301 194.600 M176.493 194.400 C 176.493 195.170,176.575 195.485,176.676 195.100 C 176.776 194.715,176.776 194.085,176.676 193.700 C 176.575 193.315,176.493 193.630,176.493 194.400 M136.781 195.200 L 136.600 197.000 131.400 197.218 L 126.200 197.437 131.513 197.518 C 137.410 197.609,137.361 197.631,137.108 194.942 L 136.963 193.400 136.781 195.200 M241.600 194.448 C 240.830 194.861,240.417 195.199,240.681 195.199 C 241.427 195.200,243.200 194.311,243.200 193.936 C 243.200 193.751,243.155 193.622,243.100 193.649 C 243.045 193.676,242.370 194.036,241.600 194.448 M292.800 194.448 C 292.030 194.861,291.617 195.199,291.881 195.199 C 292.627 195.200,294.400 194.311,294.400 193.936 C 294.400 193.751,294.355 193.622,294.300 193.649 C 294.245 193.676,293.570 194.036,292.800 194.448 M336.046 195.300 C 336.901 196.235,337.600 197.135,337.600 197.300 C 337.600 197.465,337.797 197.600,338.037 197.600 C 338.278 197.600,337.721 196.700,336.800 195.600 C 335.879 194.500,334.983 193.600,334.809 193.600 C 334.635 193.600,335.192 194.365,336.046 195.300 M244.404 195.796 C 243.405 196.859,243.493 197.370,245.043 199.500 C 245.808 200.552,243.910 200.891,242.799 199.900 C 242.322 199.475,242.318 199.504,242.768 200.100 C 243.300 200.803,246.000 201.119,246.000 200.478 C 246.000 200.300,245.550 199.545,245.000 198.800 C 243.780 197.146,243.769 196.897,244.870 195.726 C 245.348 195.217,245.649 194.800,245.539 194.800 C 245.429 194.800,244.918 195.248,244.404 195.796 M260.006 195.433 C 260.009 195.855,260.195 196.470,260.418 196.800 C 260.715 197.238,260.752 197.076,260.556 196.200 C 260.227 194.729,259.998 194.410,260.006 195.433 M295.478 195.813 C 294.860 196.356,294.514 196.800,294.708 196.800 C 294.902 196.800,295.483 196.350,296.000 195.800 C 297.195 194.528,296.931 194.534,295.478 195.813 M121.249 196.200 C 121.216 196.640,121.096 197.450,120.983 198.000 L 120.777 199.000 121.206 198.019 C 121.442 197.479,121.561 196.669,121.472 196.219 C 121.313 195.421,121.307 195.421,121.249 196.200 M318.412 195.726 C 318.386 196.423,319.259 197.602,320.109 198.018 L 321.000 198.454 320.152 197.727 C 319.686 197.327,319.106 196.640,318.864 196.200 C 318.622 195.760,318.419 195.547,318.412 195.726 M161.875 197.219 C 161.256 197.869,160.913 198.400,161.113 198.400 C 161.481 198.400,162.445 197.411,162.963 196.500 C 163.399 195.734,163.106 195.927,161.875 197.219 M176.800 196.356 C 176.800 196.735,178.755 198.599,178.911 198.368 C 178.974 198.276,178.524 197.716,177.912 197.126 C 177.301 196.535,176.800 196.188,176.800 196.356 M325.146 197.241 C 324.566 197.879,324.220 198.400,324.376 198.400 C 324.768 198.400,326.577 196.441,326.368 196.243 C 326.276 196.154,325.726 196.604,325.146 197.241 M316.002 196.714 C 315.999 197.520,317.227 199.191,318.157 199.643 C 318.966 200.037,318.964 200.024,318.120 199.327 C 317.636 198.927,316.962 198.060,316.622 197.400 C 316.283 196.740,316.004 196.431,316.002 196.714 M96.800 197.297 C 96.800 197.464,98.015 197.575,99.500 197.546 C 102.298 197.489,101.987 197.321,98.700 197.114 C 97.655 197.048,96.800 197.131,96.800 197.297 M238.080 197.280 C 237.816 197.544,237.600 198.343,237.600 199.055 C 237.600 200.216,237.466 200.366,236.300 200.511 C 235.020 200.669,235.023 200.673,236.500 200.736 C 237.905 200.796,238.000 200.726,238.000 199.633 C 238.000 197.244,238.944 196.609,240.926 197.665 C 241.716 198.086,241.747 198.067,241.251 197.465 C 240.613 196.692,238.776 196.584,238.080 197.280 M291.600 197.066 C 288.900 197.492,288.800 197.560,288.800 198.982 C 288.800 200.225,288.682 200.364,287.500 200.511 L 286.200 200.672 287.676 200.736 C 289.105 200.798,289.156 200.753,289.276 199.303 C 289.399 197.818,289.416 197.805,291.574 197.496 C 292.770 197.325,293.835 197.099,293.941 196.993 C 294.149 196.785,293.199 196.815,291.600 197.066 M164.000 198.685 C 162.758 199.959,162.726 200.040,163.716 199.404 C 164.330 199.009,165.012 198.352,165.230 197.943 C 165.772 196.931,165.622 197.021,164.000 198.685 M174.413 197.425 C 174.386 198.335,177.667 200.811,178.874 200.791 C 179.163 200.786,178.667 200.449,177.771 200.042 C 176.875 199.635,175.755 198.784,175.283 198.151 C 174.811 197.518,174.420 197.191,174.413 197.425 M269.024 197.813 C 268.596 198.136,268.425 198.400,268.644 198.400 C 268.862 198.400,269.257 198.183,269.523 197.917 C 270.294 197.146,271.520 198.532,270.817 199.380 C 270.527 199.728,270.480 200.000,270.708 200.000 C 270.932 200.000,271.224 199.715,271.357 199.367 C 271.966 197.782,270.423 196.754,269.024 197.813 M122.700 198.383 C 122.367 199.602,122.536 199.792,123.470 199.249 C 123.871 199.015,123.988 198.819,123.729 198.812 C 123.470 198.805,123.193 198.485,123.113 198.100 C 123.001 197.560,122.907 197.624,122.700 198.383 M207.455 197.911 C 207.349 198.083,208.536 198.151,210.093 198.063 C 212.691 197.916,212.985 197.981,213.673 198.851 L 214.422 199.800 213.947 198.700 C 213.471 197.599,208.054 196.941,207.455 197.911 M216.017 197.720 C 216.008 197.896,216.286 198.592,216.635 199.268 L 217.270 200.496 215.835 200.328 C 215.046 200.236,214.400 200.304,214.400 200.480 C 214.400 200.656,215.120 200.800,216.000 200.800 C 216.880 200.800,217.592 200.665,217.583 200.500 C 217.558 200.050,216.036 197.349,216.017 197.720 M75.140 198.856 C 74.623 199.001,80.485 199.138,88.167 199.160 C 95.848 199.182,102.021 199.088,101.885 198.951 C 101.547 198.614,76.323 198.524,75.140 198.856 M105.257 199.530 C 105.776 200.261,106.894 201.611,107.742 202.530 L 109.284 204.200 107.942 202.457 C 107.204 201.499,106.086 200.149,105.457 199.457 L 104.315 198.200 105.257 199.530 M128.132 198.761 C 125.774 198.989,120.261 202.949,120.048 204.568 C 120.022 204.770,121.331 203.645,122.957 202.068 L 125.915 199.200 132.657 199.110 C 136.366 199.060,140.200 199.047,141.177 199.081 C 142.386 199.123,142.770 199.026,142.377 198.778 C 141.753 198.383,132.153 198.372,128.132 198.761 M180.100 198.676 C 180.485 198.776,181.115 198.776,181.500 198.676 C 181.885 198.575,181.570 198.493,180.800 198.493 C 180.030 198.493,179.715 198.575,180.100 198.676 M225.500 198.691 C 227.649 198.816,228.000 198.945,228.000 199.605 C 228.000 200.309,227.627 200.385,223.599 200.507 L 219.199 200.641 223.699 200.621 L 228.200 200.600 228.200 199.600 C 228.200 198.639,228.099 198.599,225.600 198.573 L 223.000 198.545 225.500 198.691 M321.700 198.676 C 322.085 198.776,322.715 198.776,323.100 198.676 C 323.485 198.575,323.170 198.493,322.400 198.493 C 321.630 198.493,321.315 198.575,321.700 198.676 M327.000 199.055 C 326.560 199.401,325.660 199.928,325.000 200.227 C 324.340 200.525,324.034 200.776,324.320 200.784 C 325.047 200.806,326.956 199.776,327.578 199.026 C 328.234 198.236,328.027 198.247,327.000 199.055 M206.597 199.609 C 206.371 200.320,206.079 200.450,204.989 200.323 C 204.256 200.237,203.744 200.310,203.852 200.484 C 204.273 201.166,206.372 200.799,206.818 199.966 C 207.064 199.507,207.177 199.043,207.069 198.936 C 206.961 198.828,206.749 199.131,206.597 199.609 M104.832 201.500 C 105.979 203.416,107.186 204.767,108.200 205.269 C 108.640 205.487,108.432 205.201,107.739 204.634 C 107.045 204.067,106.003 202.792,105.422 201.801 C 104.841 200.811,104.269 200.000,104.151 200.000 C 104.032 200.000,104.339 200.675,104.832 201.500 M157.400 200.400 L 153.400 200.645 157.400 200.716 C 159.600 200.756,161.670 200.613,162.000 200.400 C 162.533 200.055,162.533 200.020,162.000 200.084 C 161.670 200.123,159.600 200.265,157.400 200.400 M119.513 202.290 C 119.388 202.769,118.681 203.528,117.943 203.978 C 117.204 204.429,116.822 204.798,117.094 204.799 C 117.903 204.801,120.129 202.588,119.927 201.981 C 119.802 201.606,119.665 201.709,119.513 202.290 M76.400 203.469 C 81.173 203.723,104.001 203.784,103.129 203.540 C 102.618 203.397,95.900 203.296,88.200 203.316 C 80.500 203.335,75.190 203.404,76.400 203.469 M130.400 203.561 C 129.443 203.830,141.161 203.697,142.400 203.425 C 142.730 203.352,140.390 203.290,137.200 203.286 C 134.010 203.283,130.950 203.406,130.400 203.561 M104.410 204.126 C 105.009 204.774,107.695 206.397,107.218 205.822 C 106.910 205.451,106.105 204.866,105.429 204.523 C 104.753 204.179,104.295 204.001,104.410 204.126 M126.046 206.300 C 124.025 208.344,123.996 208.394,125.786 206.751 C 126.894 205.733,128.160 204.704,128.600 204.463 C 129.051 204.215,129.165 204.019,128.860 204.012 C 128.563 204.005,127.297 205.035,126.046 206.300 M81.874 205.100 C 81.778 205.265,81.845 205.760,82.022 206.200 C 82.325 206.952,82.345 206.945,82.372 206.081 L 82.400 205.163 92.963 205.281 C 98.773 205.347,103.318 205.268,103.063 205.106 C 102.452 204.718,82.098 204.712,81.874 205.100 M112.300 205.331 C 113.094 205.566,114.089 205.575,114.859 205.355 C 115.944 205.044,115.764 204.991,113.559 204.970 C 111.306 204.949,111.156 204.992,112.300 205.331 M118.000 205.600 C 117.230 206.022,116.744 206.374,116.920 206.383 C 117.344 206.405,119.600 205.232,119.600 204.990 C 119.600 204.728,119.577 204.737,118.000 205.600 M130.108 205.125 C 129.838 205.296,130.808 205.361,132.264 205.268 L 134.912 205.100 134.644 206.250 C 134.447 207.094,134.484 207.240,134.782 206.800 C 135.938 205.092,132.245 203.768,130.108 205.125 M104.000 205.747 C 104.000 205.961,107.133 208.000,107.463 208.000 C 107.832 208.000,104.689 205.626,104.300 205.611 C 104.135 205.605,104.000 205.666,104.000 205.747 M112.900 206.687 C 113.505 206.778,114.495 206.778,115.100 206.687 C 115.705 206.595,115.210 206.520,114.000 206.520 C 112.790 206.520,112.295 206.595,112.900 206.687 M126.181 208.100 L 124.600 209.800 126.300 208.219 C 127.881 206.748,128.184 206.400,127.881 206.400 C 127.816 206.400,127.051 207.165,126.181 208.100 M132.185 210.900 C 131.551 211.861,131.366 212.352,131.758 212.029 C 132.418 211.487,133.796 209.200,133.463 209.200 C 133.377 209.200,132.802 209.965,132.185 210.900 M121.400 210.800 L 120.600 211.144 121.400 211.166 C 121.840 211.178,122.470 211.013,122.800 210.800 C 123.595 210.286,122.596 210.286,121.400 210.800 M106.700 211.093 C 107.635 211.177,109.165 211.177,110.100 211.093 C 111.035 211.009,110.270 210.940,108.400 210.940 C 106.530 210.940,105.765 211.009,106.700 211.093 M85.212 211.427 C 85.196 211.986,87.696 215.237,87.948 214.985 C 88.055 214.879,87.684 214.299,87.124 213.696 C 86.565 213.093,85.908 212.240,85.666 211.800 C 85.423 211.360,85.219 211.192,85.212 211.427 M98.528 215.500 C 104.208 215.562,113.388 215.562,118.928 215.500 C 124.468 215.437,119.820 215.386,108.600 215.386 C 97.380 215.386,92.848 215.437,98.528 215.500 M90.400 217.153 C 90.400 217.470,92.220 218.996,93.500 219.752 C 94.676 220.446,93.862 219.613,92.330 218.554 L 90.660 217.400 92.030 217.153 L 93.400 216.905 91.900 216.853 C 91.075 216.824,90.400 216.959,90.400 217.153 M112.345 217.100 C 125.055 217.202,126.048 217.260,125.545 217.870 C 125.047 218.471,125.078 218.480,125.900 217.968 C 127.646 216.880,126.667 216.801,112.700 216.895 L 98.600 216.989 112.345 217.100 M121.800 220.221 C 119.035 221.799,119.114 222.076,121.913 220.616 C 124.210 219.418,125.133 218.806,124.600 218.832 C 124.380 218.843,123.120 219.468,121.800 220.221 M104.080 223.660 C 105.250 223.991,111.425 223.986,112.980 223.653 C 113.628 223.514,111.684 223.400,108.659 223.400 C 105.634 223.400,103.574 223.517,104.080 223.660" id="path4"/></g></svg>