<svg style="max-height: 500px" viewBox="NaN NaN NaN NaN" version="1.1" id="svg" xmlns:xlink="http://www.w3.org/1999/xlink" xmlns="http://www.w3.org/2000/svg" width="NaN" height="NaN">
  <g id="svgg">
    
    <path style="opacity: 1;" data-index="1" fill-rule="evenodd" fill="#fa7418" stroke="none" d="M196.200 156.205 C 183.551 158.549,173.200 169.929,173.200 181.491 C 173.200 184.573,172.903 184.468,181.200 184.314 L 187.400 184.200 187.509 177.541 C 187.645 169.272,186.930 169.940,195.680 169.916 C 210.810 169.876,216.530 173.540,215.891 182.862 C 215.772 184.588,215.755 186.000,215.852 186.000 C 215.949 186.000,216.508 185.685,217.095 185.300 C 217.930 184.752,219.336 184.557,223.581 184.400 L 229.000 184.200 229.128 182.000 C 230.000 167.032,212.357 153.212,196.200 156.205 M190.089 172.337 C 189.703 172.581,189.605 174.083,189.689 178.431 L 189.800 184.200 192.867 184.449 C 196.420 184.738,197.680 185.444,199.346 188.081 C 202.968 193.810,210.642 193.411,212.638 187.389 C 216.195 176.657,211.104 171.988,195.865 172.006 C 192.969 172.009,190.370 172.158,190.089 172.337 M167.000 186.467 C 165.395 187.399,165.203 188.403,166.400 189.600 C 167.170 190.370,167.736 190.400,181.300 190.404 C 195.282 190.408,195.417 190.416,197.432 191.354 C 199.689 192.405,201.471 194.289,200.822 194.938 C 200.396 195.364,199.874 195.153,197.000 193.393 C 195.242 192.317,174.800 191.785,174.800 192.816 C 174.800 193.045,175.164 193.945,175.608 194.816 L 176.416 196.400 195.434 196.400 C 216.545 196.400,215.028 196.599,218.430 193.384 C 221.247 190.722,222.406 190.405,229.326 190.402 C 235.474 190.400,236.400 190.139,236.400 188.409 C 236.400 186.258,235.458 186.000,227.608 186.000 C 218.945 186.000,218.581 186.102,215.042 189.529 C 208.754 195.617,202.133 195.578,197.945 189.427 C 195.718 186.155,196.016 186.214,181.000 186.101 C 171.538 186.030,167.573 186.134,167.000 186.467 M221.600 193.251 C 220.830 193.718,219.607 194.707,218.881 195.449 C 216.103 198.293,216.957 198.178,196.833 198.400 C 177.091 198.617,177.577 198.546,179.749 200.916 L 181.108 202.400 200.900 202.400 C 220.130 202.400,220.721 202.377,221.716 201.595 C 223.210 200.420,225.461 197.213,226.599 194.641 L 227.590 192.400 225.295 192.401 C 223.665 192.403,222.594 192.649,221.600 193.251 M184.033 204.371 C 183.602 204.644,184.070 205.121,185.974 206.352 C 194.012 211.547,204.616 212.109,213.430 207.807 C 217.081 206.025,218.662 204.812,217.934 204.351 C 217.216 203.896,184.753 203.915,184.033 204.371" id="path1"/>
    <path style="opacity: 1;" data-index="2" fill-rule="evenodd" fill="#f1bc98" stroke="none" d="M195.600 155.813 C 182.792 158.373,172.416 170.197,172.883 181.702 L 173.000 184.600 180.198 184.710 C 188.920 184.842,188.211 185.479,188.161 177.560 C 188.139 174.172,188.203 171.175,188.303 170.900 C 188.540 170.252,201.809 170.203,204.880 170.839 C 212.950 172.509,216.399 176.852,215.308 183.969 C 214.811 187.216,214.750 187.158,217.305 185.866 C 219.244 184.885,219.799 184.800,224.292 184.800 C 230.053 184.800,230.237 184.669,229.774 180.878 C 227.736 164.168,211.902 152.555,195.600 155.813 M205.800 156.173 C 218.719 158.483,229.785 170.734,229.128 182.000 L 229.000 184.200 223.581 184.400 C 219.336 184.557,217.930 184.752,217.095 185.300 C 216.508 185.685,215.949 186.000,215.852 186.000 C 215.755 186.000,215.772 184.588,215.891 182.862 C 216.530 173.540,210.810 169.876,195.680 169.916 C 186.930 169.940,187.645 169.272,187.509 177.541 L 187.400 184.200 181.200 184.314 C 172.903 184.468,173.200 184.573,173.200 181.491 C 173.200 166.239,189.836 153.319,205.800 156.173 M189.745 171.971 C 188.924 172.326,188.892 172.568,188.956 178.071 C 189.036 184.880,188.999 184.798,191.924 184.809 C 195.026 184.821,197.200 185.875,198.740 188.113 C 201.368 191.933,204.364 193.293,208.238 192.426 C 211.419 191.715,212.133 190.861,213.406 186.251 C 215.463 178.796,213.473 174.742,206.700 172.594 C 204.281 171.827,191.188 171.346,189.745 171.971 M204.125 172.573 C 212.764 174.226,215.451 178.902,212.638 187.389 C 210.642 193.411,202.968 193.810,199.346 188.081 C 197.680 185.444,196.420 184.738,192.867 184.449 L 189.800 184.200 189.689 178.431 C 189.605 174.083,189.703 172.581,190.089 172.337 C 190.946 171.793,200.925 171.961,204.125 172.573 M166.254 186.429 C 165.007 187.410,164.880 188.880,165.950 189.950 C 166.649 190.649,167.688 190.712,181.250 190.874 C 194.043 191.027,195.975 191.132,197.251 191.747 C 199.087 192.630,200.849 194.400,199.893 194.400 C 199.538 194.400,199.125 194.202,198.975 193.959 C 197.826 192.101,194.928 191.608,185.133 191.604 C 173.322 191.599,173.364 191.584,175.257 195.131 C 176.408 197.285,175.448 197.190,195.800 197.186 C 215.866 197.182,216.026 197.162,218.060 194.398 C 220.124 191.595,221.832 191.044,228.984 190.870 C 236.149 190.697,236.800 190.471,236.800 188.161 C 236.800 185.787,236.083 185.600,226.971 185.600 L 218.920 185.600 217.282 186.787 C 216.381 187.439,215.236 188.525,214.737 189.199 C 210.477 194.962,202.061 194.722,198.000 188.722 C 195.935 185.671,195.905 185.666,180.554 185.630 C 167.735 185.601,167.274 185.627,166.254 186.429 M195.383 186.800 C 196.033 187.130,197.186 188.312,197.945 189.427 C 202.133 195.578,208.754 195.617,215.042 189.529 C 218.581 186.102,218.945 186.000,227.608 186.000 C 235.458 186.000,236.400 186.258,236.400 188.409 C 236.400 190.139,235.474 190.400,229.326 190.402 C 222.406 190.405,221.247 190.722,218.430 193.384 C 215.028 196.599,216.545 196.400,195.434 196.400 L 176.416 196.400 175.608 194.816 C 175.164 193.945,174.800 193.045,174.800 192.816 C 174.800 191.785,195.242 192.317,197.000 193.393 C 199.874 195.153,200.396 195.364,200.822 194.938 C 201.471 194.289,199.689 192.405,197.432 191.354 C 195.417 190.416,195.282 190.408,181.300 190.404 C 167.736 190.400,167.170 190.370,166.400 189.600 C 165.203 188.403,165.395 187.399,167.000 186.467 C 168.297 185.713,193.831 186.013,195.383 186.800 M222.463 192.212 C 221.727 192.531,220.209 193.617,219.088 194.625 C 215.340 197.995,216.823 197.776,196.233 198.000 C 175.761 198.223,176.555 198.084,179.224 200.980 L 180.902 202.800 201.104 202.800 L 221.306 202.800 222.721 201.300 C 225.791 198.047,228.601 192.626,227.559 191.966 C 226.709 191.428,223.963 191.560,222.463 192.212 M226.599 194.641 C 225.461 197.213,223.210 200.420,221.716 201.595 C 220.721 202.377,220.130 202.400,200.900 202.400 L 181.108 202.400 179.749 200.916 C 177.577 198.546,177.091 198.617,196.833 198.400 C 216.957 198.178,216.103 198.293,218.881 195.449 C 221.098 193.180,222.733 192.403,225.295 192.401 L 227.590 192.400 226.599 194.641 M183.200 204.014 C 182.463 204.508,183.391 205.373,186.775 207.347 C 193.798 211.442,202.117 212.300,210.000 209.742 C 214.312 208.342,219.621 205.005,219.037 204.061 C 218.664 203.457,184.098 203.412,183.200 204.014 M217.934 204.351 C 218.662 204.812,217.081 206.025,213.430 207.807 C 204.616 212.109,194.012 211.547,185.974 206.352 C 184.070 205.121,183.602 204.644,184.033 204.371 C 184.753 203.915,217.216 203.896,217.934 204.351" id="path2"/>
    <path style="opacity: 1;" data-index="3" fill-rule="evenodd" fill="#f5d8c4" stroke="none" d="M196.476 155.140 C 195.968 155.283,198.094 155.400,201.200 155.400 C 204.306 155.400,206.432 155.283,205.924 155.140 C 205.416 154.997,203.290 154.880,201.200 154.880 C 199.110 154.880,196.984 154.997,196.476 155.140 M190.256 156.801 C 183.932 159.438,174.800 168.019,174.800 171.324 C 174.800 171.555,175.475 170.636,176.300 169.280 C 180.112 163.017,185.433 158.756,192.200 156.549 C 193.740 156.047,194.550 155.640,194.000 155.646 C 193.450 155.652,191.765 156.171,190.256 156.801 M208.800 156.119 C 212.134 157.109,212.606 157.195,211.202 156.555 C 210.434 156.205,209.174 155.843,208.402 155.751 C 207.169 155.605,207.217 155.649,208.800 156.119 M212.800 157.377 C 212.800 157.474,213.835 158.106,215.100 158.781 C 220.204 161.507,223.853 165.275,226.843 170.906 C 227.688 172.498,228.384 173.647,228.389 173.461 C 228.420 172.472,224.906 166.666,222.955 164.483 C 220.199 161.399,212.800 156.221,212.800 157.377 M188.900 170.665 C 188.625 170.776,188.400 171.218,188.400 171.647 C 188.400 172.263,188.548 172.351,189.100 172.064 C 192.891 170.094,207.147 171.699,210.882 174.516 C 214.893 177.541,215.307 180.942,212.679 189.292 C 211.923 191.693,212.658 191.451,215.015 188.521 C 215.865 187.464,216.182 186.927,215.720 187.326 C 214.615 188.281,214.357 187.756,214.861 185.578 C 217.295 175.052,210.736 169.997,195.242 170.457 C 192.107 170.550,190.266 170.774,189.940 171.100 C 189.232 171.808,188.600 171.723,189.200 171.000 C 189.725 170.368,189.701 170.342,188.900 170.665 M173.993 173.018 C 173.484 174.356,173.034 176.254,173.286 176.000 C 173.594 175.689,174.775 172.000,174.566 172.000 C 174.464 172.000,174.206 172.458,173.993 173.018 M228.456 174.400 C 228.456 174.730,228.611 175.360,228.800 175.800 C 229.017 176.304,229.144 176.378,229.144 176.000 C 229.144 175.670,228.989 175.040,228.800 174.600 C 228.583 174.096,228.456 174.022,228.456 174.400 M188.540 178.000 C 188.540 179.870,188.609 180.635,188.693 179.700 C 188.777 178.765,188.777 177.235,188.693 176.300 C 188.609 175.365,188.540 176.130,188.540 178.000 M172.656 177.284 C 172.521 177.788,172.427 178.560,172.446 179.000 C 172.465 179.440,172.645 179.098,172.846 178.240 C 173.236 176.578,173.070 175.740,172.656 177.284 M229.458 178.000 C 229.775 179.725,230.002 180.051,229.994 178.767 C 229.991 178.235,229.811 177.530,229.594 177.200 C 229.318 176.778,229.277 177.015,229.458 178.000 M172.186 182.700 L 172.324 185.200 169.651 185.200 C 165.757 185.200,164.000 186.734,164.909 189.341 C 165.447 190.884,167.311 191.600,170.787 191.600 C 172.905 191.600,173.600 191.736,173.600 192.149 C 173.600 193.239,175.240 196.373,176.209 197.136 C 176.754 197.564,177.200 198.298,177.200 198.767 C 177.200 199.738,180.215 203.200,181.061 203.200 C 181.368 203.200,181.785 203.634,181.987 204.165 C 182.525 205.582,189.570 210.001,191.289 210.000 C 191.570 210.000,190.630 209.451,189.200 208.781 C 183.716 206.210,181.135 203.666,183.900 203.556 C 184.518 203.532,183.970 203.313,182.651 203.056 C 177.479 202.052,175.946 197.952,180.600 197.571 L 183.400 197.341 179.962 197.271 C 176.118 197.192,175.895 197.058,174.594 194.054 C 173.872 192.389,173.870 192.285,174.544 191.791 C 175.142 191.354,174.601 191.253,171.036 191.137 C 166.331 190.984,165.100 190.367,165.100 188.163 C 165.100 186.282,166.410 185.600,170.021 185.600 C 172.823 185.600,174.420 185.140,173.120 184.707 C 172.854 184.618,172.504 183.568,172.342 182.373 L 172.048 180.200 172.186 182.700 M230.000 182.413 C 230.000 183.880,229.828 184.491,229.366 184.668 C 228.136 185.140,229.716 185.588,232.638 185.594 C 235.661 185.600,236.288 185.933,237.188 188.008 C 237.600 188.957,237.609 188.948,237.392 187.800 C 237.024 185.845,235.891 185.200,232.830 185.200 L 230.149 185.200 230.323 182.800 C 230.418 181.480,230.385 180.400,230.248 180.400 C 230.112 180.400,230.000 181.306,230.000 182.413 M188.083 184.416 C 187.582 185.218,187.828 185.600,188.843 185.600 C 189.846 185.600,189.987 185.107,189.196 184.359 C 188.574 183.771,188.483 183.775,188.083 184.416 M194.916 185.845 C 196.542 186.344,197.041 186.761,198.218 188.601 C 199.535 190.660,202.288 192.800,203.620 192.800 C 203.922 192.800,203.373 192.395,202.401 191.900 C 201.327 191.354,199.918 190.080,198.816 188.660 C 196.855 186.132,195.570 185.221,194.000 185.242 C 193.325 185.251,193.622 185.447,194.916 185.845 M214.170 188.933 C 214.030 189.300,213.754 189.600,213.557 189.600 C 213.139 189.600,213.074 188.259,213.473 187.860 C 213.923 187.410,214.446 188.215,214.170 188.933 M236.347 190.143 C 235.772 190.896,235.168 191.028,231.347 191.232 C 228.956 191.359,227.225 191.494,227.500 191.532 C 228.848 191.716,227.270 195.582,224.051 199.985 C 222.073 202.690,221.819 202.813,217.400 203.203 L 214.200 203.485 216.700 203.543 C 220.934 203.640,219.416 205.680,212.800 208.781 C 211.370 209.451,210.422 210.000,210.694 210.000 C 212.429 210.001,219.456 205.631,219.994 204.215 C 220.185 203.713,220.795 203.188,221.349 203.049 C 223.174 202.590,228.381 194.824,228.395 192.540 C 228.400 191.734,228.628 191.671,231.989 191.540 C 235.323 191.410,238.074 190.304,237.178 189.454 C 237.080 189.361,236.706 189.671,236.347 190.143 M183.700 191.494 C 184.745 191.576,186.455 191.576,187.500 191.494 C 188.545 191.412,187.690 191.344,185.600 191.344 C 183.510 191.344,182.655 191.412,183.700 191.494 M195.633 191.732 C 195.725 191.805,196.700 192.344,197.800 192.929 L 199.800 193.993 198.415 192.797 C 197.653 192.138,196.678 191.600,196.248 191.600 C 195.818 191.600,195.542 191.660,195.633 191.732 M208.900 192.448 C 208.185 192.654,207.600 192.927,207.600 193.055 C 207.600 193.382,209.721 192.820,210.180 192.372 C 210.614 191.947,210.637 191.946,208.900 192.448 M219.851 192.831 C 219.270 193.288,218.594 194.053,218.347 194.531 C 218.021 195.165,218.319 195.022,219.450 194.001 C 220.302 193.232,221.171 192.467,221.380 192.301 C 221.612 192.117,221.595 192.000,221.334 192.000 C 221.100 192.000,220.432 192.374,219.851 192.831 M191.913 197.495 C 193.076 197.576,194.876 197.576,195.913 197.493 C 196.951 197.411,196.000 197.345,193.800 197.346 C 191.600 197.347,190.751 197.414,191.913 197.495 M210.307 197.490 C 211.026 197.579,212.106 197.577,212.707 197.486 C 213.308 197.395,212.720 197.322,211.400 197.324 C 210.080 197.326,209.588 197.401,210.307 197.490 M192.705 203.483 C 193.202 203.579,193.922 203.575,194.305 203.475 C 194.687 203.375,194.280 203.296,193.400 203.301 C 192.520 203.305,192.207 203.387,192.705 203.483 M199.682 203.496 C 201.158 203.573,203.678 203.573,205.282 203.497 C 206.887 203.421,205.680 203.358,202.600 203.358 C 199.520 203.357,198.207 203.419,199.682 203.496 M192.400 210.382 C 192.730 210.605,193.345 210.791,193.767 210.794 C 194.790 210.802,194.471 210.573,193.000 210.244 C 192.124 210.048,191.962 210.085,192.400 210.382 M207.200 210.659 C 205.673 211.056,203.410 211.189,199.800 211.094 C 196.940 211.019,195.140 211.081,195.800 211.231 C 199.116 211.989,208.822 211.311,209.885 210.248 C 210.214 209.920,209.816 209.980,207.200 210.659" id="path3"/>
    <path data-index="4" fill-rule="evenodd" fill="#f1c8aa" stroke="none" d="M220.400 162.525 C 220.400 162.594,220.985 163.179,221.700 163.825 L 223.000 165.000 221.825 163.700 C 220.730 162.488,220.400 162.216,220.400 162.525 M195.491 171.489 C 196.201 171.577,197.461 171.579,198.291 171.492 C 199.121 171.405,198.540 171.333,197.000 171.331 C 195.460 171.329,194.781 171.400,195.491 171.489 M188.524 172.500 C 188.346 172.775,188.192 175.432,188.182 178.405 C 188.159 185.390,188.859 184.800,180.600 184.800 C 176.396 184.800,173.549 184.958,173.400 185.200 C 173.239 185.461,175.729 185.600,180.576 185.600 C 184.659 185.600,187.971 185.465,187.936 185.300 C 187.720 184.276,188.498 183.581,189.069 184.288 C 189.591 184.934,189.602 184.914,189.194 184.075 C 188.548 182.746,188.243 176.567,188.701 174.100 C 189.105 171.926,189.074 171.650,188.524 172.500 M188.920 178.400 C 188.920 179.610,188.995 180.105,189.087 179.500 C 189.178 178.895,189.178 177.905,189.087 177.300 C 188.995 176.695,188.920 177.190,188.920 178.400 M172.524 181.800 C 172.526 183.120,172.601 183.612,172.690 182.893 C 172.779 182.174,172.777 181.094,172.686 180.493 C 172.595 179.892,172.522 180.480,172.524 181.800 M189.800 185.200 C 189.496 185.692,192.656 185.692,193.800 185.200 C 194.377 184.952,193.965 184.848,192.324 184.828 C 191.072 184.813,189.936 184.980,189.800 185.200 M218.700 185.076 C 218.315 185.176,218.000 185.455,218.000 185.696 C 218.000 185.937,217.886 186.020,217.747 185.881 C 217.609 185.742,217.119 185.892,216.658 186.214 C 216.198 186.536,215.502 186.800,215.111 186.800 C 214.337 186.800,214.155 187.401,214.807 187.804 C 215.030 187.942,215.092 188.268,214.945 188.528 C 214.797 188.787,215.199 188.533,215.838 187.961 C 218.419 185.654,218.612 185.600,224.389 185.594 C 228.030 185.590,229.604 185.461,229.200 185.200 C 228.610 184.819,220.070 184.718,218.700 185.076 M196.617 186.372 C 196.373 186.768,197.047 187.324,197.935 187.458 C 198.306 187.515,198.256 187.304,197.773 186.770 C 196.972 185.886,196.927 185.870,196.617 186.372 M200.001 190.132 C 200.551 190.755,200.955 191.340,200.900 191.432 C 200.769 191.653,201.219 191.714,201.429 191.504 C 201.519 191.415,201.009 190.815,200.297 190.171 L 199.003 189.000 200.001 190.132 M211.165 191.352 C 210.626 191.852,209.918 192.189,209.592 192.100 C 209.080 191.961,209.078 191.994,209.578 192.342 C 210.164 192.749,210.721 192.566,212.161 191.490 C 212.580 191.177,212.747 190.815,212.533 190.682 C 212.320 190.551,211.704 190.852,211.165 191.352 M171.400 191.177 C 173.621 191.301,175.089 191.528,174.700 191.687 C 174.315 191.846,174.021 192.296,174.046 192.687 C 174.088 193.331,174.110 193.334,174.272 192.719 C 174.584 191.534,183.903 190.888,191.400 191.531 C 193.600 191.720,195.642 191.751,195.938 191.600 C 196.879 191.120,188.948 190.802,178.000 190.880 C 171.196 190.928,168.832 191.035,171.400 191.177 M223.800 191.062 C 223.360 191.155,222.625 191.310,222.167 191.406 C 221.708 191.503,221.333 191.834,221.333 192.143 C 221.333 192.618,221.551 192.612,222.755 192.109 C 223.644 191.738,224.906 191.585,226.122 191.702 C 227.223 191.808,227.837 191.746,227.536 191.560 C 227.228 191.370,228.694 191.176,231.002 191.099 C 234.583 190.981,234.457 190.964,229.800 190.930 C 226.940 190.910,224.240 190.969,223.800 191.062 M201.817 191.972 C 201.442 192.579,202.336 192.879,203.097 192.403 C 203.694 192.028,203.657 192.001,202.850 192.224 C 202.205 192.401,201.988 192.343,202.174 192.043 C 202.324 191.799,202.357 191.600,202.247 191.600 C 202.137 191.600,201.944 191.768,201.817 191.972 M198.553 192.962 C 198.679 193.820,199.418 194.527,199.989 194.337 C 200.259 194.247,200.038 193.799,199.453 193.250 C 198.695 192.538,198.481 192.469,198.553 192.962 M203.529 192.844 C 203.311 192.978,204.055 193.210,205.180 193.360 C 206.627 193.552,207.377 193.480,207.742 193.116 C 208.290 192.567,204.383 192.316,203.529 192.844 M219.612 193.788 C 219.101 194.331,218.550 194.693,218.387 194.592 C 218.224 194.491,217.845 194.706,217.545 195.069 C 215.769 197.221,214.714 197.334,195.902 197.387 C 185.391 197.416,178.251 197.589,178.021 197.818 C 177.252 198.587,214.411 197.904,215.836 197.123 C 217.080 196.441,221.199 192.845,220.770 192.816 C 220.643 192.807,220.122 193.244,219.612 193.788 M178.400 200.525 C 178.400 200.594,178.985 201.179,179.700 201.825 L 181.000 203.000 179.825 201.700 C 178.730 200.488,178.400 200.216,178.400 200.525 M183.737 203.189 C 185.534 203.536,219.136 203.397,219.493 203.041 C 219.625 202.908,211.288 202.821,200.967 202.846 C 190.645 202.871,182.892 203.026,183.737 203.189" id="path4"/>
  </g>
</svg>