<svg viewBox="NaN NaN NaN NaN" xmlns:xlink="http://www.w3.org/1999/xlink" xmlns="http://www.w3.org/2000/svg" version="1.1" id="svg" style="max-height: 500px" width="NaN" height="NaN"><g id="svgg"><path data-index="1" fill-rule="evenodd" fill="#fc812d" stroke="none" d="M127.784 178.223 C 120.572 180.054,122.157 190.462,129.635 190.381 C 133.038 190.344,134.200 189.381,134.200 186.596 C 134.200 184.416,134.119 184.188,133.300 184.072 C 132.502 183.959,132.399 184.118,132.394 185.472 C 132.381 188.658,129.173 189.464,126.629 186.920 C 123.218 183.509,127.635 178.393,132.196 180.471 C 133.054 180.862,133.343 180.828,133.900 180.271 C 135.426 178.745,131.244 177.345,127.784 178.223 M214.104 178.099 C 208.213 179.303,207.509 187.480,213.097 189.815 C 216.251 191.133,221.659 189.488,219.913 187.742 C 219.302 187.130,219.152 187.131,217.828 187.760 C 213.241 189.937,209.522 184.313,213.251 180.838 C 214.265 179.894,216.544 179.718,218.169 180.459 C 219.176 180.917,220.400 180.427,220.400 179.565 C 220.400 178.552,216.421 177.626,214.104 178.099 M269.893 178.045 C 263.736 179.455,262.964 187.411,268.749 189.835 C 272.047 191.217,275.977 189.858,277.294 186.881 C 279.539 181.804,275.345 176.797,269.893 178.045 M102.889 184.053 L 103.000 190.200 105.200 190.333 C 112.315 190.762,116.764 186.573,114.348 181.719 C 112.969 178.948,111.524 178.257,106.699 178.064 L 102.779 177.906 102.889 184.053 M117.776 178.519 C 117.666 178.805,117.627 181.550,117.688 184.619 L 117.800 190.200 118.800 190.200 L 119.800 190.200 119.910 184.100 L 120.021 178.000 118.998 178.000 C 118.435 178.000,117.885 178.234,117.776 178.519 M137.776 178.519 C 137.666 178.805,137.627 181.550,137.688 184.619 L 137.800 190.200 138.800 190.200 L 139.800 190.200 139.910 184.100 L 140.021 178.000 138.998 178.000 C 138.435 178.000,137.885 178.234,137.776 178.519 M142.539 178.615 C 142.190 179.523,142.762 179.928,144.600 180.073 L 146.200 180.200 146.400 185.200 L 146.600 190.200 147.600 190.200 L 148.600 190.200 148.800 185.200 L 149.000 180.200 150.800 180.000 C 152.267 179.837,152.600 179.652,152.600 179.000 C 152.600 177.893,142.958 177.524,142.539 178.615 M158.127 178.500 C 156.985 180.284,152.938 190.038,153.257 190.235 C 154.078 190.743,155.465 189.979,156.023 188.712 C 157.026 186.432,163.200 186.721,163.200 189.048 C 163.200 189.638,164.425 190.400,165.374 190.400 C 166.422 190.400,166.125 189.525,162.168 180.958 C 160.771 177.934,159.129 176.935,158.127 178.500 M168.489 184.072 L 168.600 190.200 172.000 190.318 C 176.113 190.461,177.200 190.234,177.200 189.235 C 177.200 188.244,176.446 188.000,173.380 188.000 L 170.825 188.000 170.712 183.100 L 170.600 178.200 169.489 178.072 L 168.379 177.945 168.489 184.072 M184.400 183.918 C 184.400 187.545,184.561 190.052,184.804 190.202 C 185.680 190.744,186.800 189.960,186.800 188.806 C 186.800 186.983,187.190 186.400,188.412 186.400 C 189.509 186.400,189.767 186.631,191.950 189.560 C 192.518 190.324,192.886 190.465,193.745 190.250 L 194.824 189.979 193.812 188.652 C 192.593 187.053,192.546 186.354,193.592 185.407 C 195.225 183.929,194.926 179.724,193.119 178.756 C 192.669 178.516,190.524 178.221,188.351 178.101 L 184.400 177.884 184.400 183.918 M197.776 178.519 C 197.666 178.805,197.627 181.550,197.688 184.619 L 197.800 190.200 202.400 190.200 L 207.000 190.200 207.000 189.200 C 207.000 188.227,206.907 188.195,203.600 188.000 C 198.400 187.694,198.263 184.800,203.449 184.800 C 205.733 184.800,206.000 184.716,206.000 184.000 C 206.000 183.284,205.733 183.200,203.449 183.200 C 198.416 183.200,198.372 180.314,203.400 180.000 C 206.343 179.816,206.610 179.728,206.728 178.900 C 206.882 177.815,198.188 177.445,197.776 178.519 M223.376 178.519 C 223.266 178.805,223.227 181.550,223.288 184.619 L 223.400 190.200 228.000 190.200 L 232.600 190.200 232.600 189.200 C 232.600 188.227,232.507 188.195,229.200 188.000 C 224.000 187.694,223.863 184.800,229.049 184.800 C 231.333 184.800,231.600 184.716,231.600 184.000 C 231.600 183.284,231.333 183.200,229.049 183.200 C 224.016 183.200,223.972 180.314,229.000 180.000 C 231.943 179.816,232.210 179.728,232.328 178.900 C 232.482 177.815,223.788 177.445,223.376 178.519 M235.600 183.918 C 235.600 187.545,235.761 190.052,236.004 190.202 C 236.953 190.789,237.954 189.957,238.077 188.480 L 238.200 187.000 240.800 186.689 C 245.033 186.183,246.665 184.198,245.646 180.797 C 245.019 178.704,244.240 178.360,239.551 178.101 L 235.600 177.884 235.600 183.918 M246.957 178.569 C 246.569 179.579,247.177 180.000,249.024 180.000 C 251.167 180.000,250.866 179.264,251.156 185.200 L 251.400 190.200 252.400 190.200 L 253.400 190.200 253.512 185.121 L 253.624 180.043 255.512 179.921 C 257.093 179.820,257.400 179.670,257.400 179.000 C 257.400 177.932,247.360 177.518,246.957 178.569 M259.600 183.976 C 259.600 190.116,259.741 190.663,261.204 190.199 C 261.952 189.961,262.000 189.586,262.000 183.973 L 262.000 178.000 260.800 178.000 L 259.600 178.000 259.600 183.976 M280.976 178.519 C 280.866 178.805,280.827 181.550,280.888 184.619 L 281.000 190.200 282.000 190.200 C 282.982 190.200,283.002 190.138,283.116 186.672 C 283.257 182.373,283.280 182.374,287.148 186.953 C 291.509 192.116,291.800 191.944,291.800 184.200 L 291.800 178.200 290.700 178.073 L 289.600 177.947 289.600 181.373 C 289.600 185.769,289.304 185.771,285.623 181.400 C 282.853 178.111,281.463 177.249,280.976 178.519 M111.000 180.964 C 114.164 183.495,112.070 188.000,107.730 188.000 L 105.200 188.000 105.200 184.267 C 105.200 182.213,105.320 180.413,105.467 180.267 C 106.171 179.563,109.824 180.023,111.000 180.964 M191.635 180.835 C 193.396 182.596,191.736 184.858,188.800 184.698 L 187.000 184.600 186.875 182.854 C 186.691 180.299,186.913 180.000,188.987 180.000 C 190.292 180.000,191.034 180.234,191.635 180.835 M242.835 180.835 C 244.596 182.596,242.936 184.858,240.000 184.698 L 238.200 184.600 238.075 182.854 C 237.891 180.299,238.113 180.000,240.187 180.000 C 241.492 180.000,242.234 180.234,242.835 180.835 M274.200 180.964 C 275.249 181.804,275.400 182.179,275.400 183.953 C 275.400 189.107,268.613 189.974,267.359 184.981 C 266.401 181.164,271.043 178.438,274.200 180.964 M160.747 182.853 C 161.889 185.602,161.890 185.600,159.600 185.600 C 157.271 185.600,157.164 185.320,158.444 182.596 C 159.512 180.324,159.705 180.346,160.747 182.853" id="path1"/><path data-index="2" fill-rule="evenodd" fill="#fcc5a4" stroke="none" d="M120.399 184.119 L 120.598 190.600 120.710 184.431 C 120.771 181.038,120.682 178.121,120.511 177.950 C 120.340 177.778,120.289 180.554,120.399 184.119 M140.399 183.919 L 140.597 190.200 140.710 184.231 C 140.772 180.948,140.682 178.122,140.511 177.950 C 140.340 177.778,140.289 180.464,140.399 183.919 M291.999 183.919 L 292.197 190.200 292.310 184.231 C 292.372 180.948,292.282 178.122,292.111 177.950 C 291.940 177.778,291.889 180.464,291.999 183.919 M117.360 184.200 C 117.361 187.500,117.422 188.797,117.498 187.082 C 117.573 185.367,117.572 182.667,117.497 181.082 C 117.421 179.497,117.359 180.900,117.360 184.200 M137.360 184.200 C 137.361 187.500,137.422 188.797,137.498 187.082 C 137.573 185.367,137.572 182.667,137.497 181.082 C 137.421 179.497,137.359 180.900,137.360 184.200 M197.360 184.200 C 197.361 187.500,197.422 188.797,197.498 187.082 C 197.573 185.367,197.572 182.667,197.497 181.082 C 197.421 179.497,197.359 180.900,197.360 184.200 M222.960 184.200 C 222.961 187.500,223.022 188.797,223.098 187.082 C 223.173 185.367,223.172 182.667,223.097 181.082 C 223.021 179.497,222.959 180.900,222.960 184.200 M288.732 181.401 C 288.659 183.051,288.735 184.401,288.900 184.401 C 289.065 184.400,289.200 183.050,289.200 181.400 C 289.200 177.525,288.902 177.525,288.732 181.401 M246.710 180.049 C 246.870 180.197,247.760 180.386,248.690 180.469 C 249.619 180.551,250.249 180.498,250.090 180.351 C 249.930 180.203,249.040 180.014,248.110 179.931 C 247.181 179.849,246.551 179.902,246.710 180.049 M105.845 180.328 C 105.733 180.508,106.173 180.577,106.821 180.482 C 107.470 180.387,108.000 180.240,108.000 180.155 C 108.000 179.850,106.043 180.007,105.845 180.328 M143.105 180.283 C 143.602 180.379,144.322 180.375,144.705 180.275 C 145.087 180.175,144.680 180.096,143.800 180.101 C 142.920 180.105,142.607 180.187,143.105 180.283 M150.705 180.283 C 151.202 180.379,151.922 180.375,152.305 180.275 C 152.687 180.175,152.280 180.096,151.400 180.101 C 150.520 180.105,150.207 180.187,150.705 180.283 M255.505 180.283 C 256.002 180.379,256.722 180.375,257.105 180.275 C 257.487 180.175,257.080 180.096,256.200 180.101 C 255.320 180.105,255.007 180.187,255.505 180.283 M250.553 185.800 C 250.553 188.440,250.618 189.468,250.697 188.084 C 250.775 186.701,250.774 184.541,250.695 183.284 C 250.616 182.028,250.552 183.160,250.553 185.800 M201.800 182.638 C 203.674 182.939,206.309 182.977,206.138 182.700 C 206.036 182.535,204.838 182.425,203.476 182.454 C 202.114 182.484,201.360 182.567,201.800 182.638 M227.400 182.638 C 229.274 182.939,231.909 182.977,231.738 182.700 C 231.636 182.535,230.438 182.425,229.076 182.454 C 227.714 182.484,226.960 182.567,227.400 182.638 M122.493 184.000 C 122.493 184.770,122.575 185.085,122.676 184.700 C 122.776 184.315,122.776 183.685,122.676 183.300 C 122.575 182.915,122.493 183.230,122.493 184.000 M283.369 184.137 C 283.255 184.433,283.225 186.008,283.302 187.637 L 283.441 190.600 283.521 187.276 C 283.578 184.882,283.729 184.033,284.062 184.238 C 284.348 184.415,284.415 184.348,284.238 184.062 C 283.865 183.457,283.622 183.479,283.369 184.137 M134.920 186.400 C 134.920 187.610,134.995 188.105,135.087 187.500 C 135.178 186.895,135.178 185.905,135.087 185.300 C 134.995 184.695,134.920 185.190,134.920 186.400 M203.600 185.200 L 201.000 185.462 203.476 185.531 C 204.838 185.569,206.064 185.420,206.200 185.200 C 206.336 184.980,206.392 184.831,206.324 184.869 C 206.256 184.907,205.030 185.056,203.600 185.200 M229.200 185.200 L 226.600 185.462 229.076 185.531 C 230.438 185.569,231.664 185.420,231.800 185.200 C 231.936 184.980,231.992 184.831,231.924 184.869 C 231.856 184.907,230.630 185.056,229.200 185.200 M158.300 187.889 C 159.015 187.978,160.185 187.978,160.900 187.889 C 161.615 187.801,161.030 187.728,159.600 187.728 C 158.170 187.728,157.585 187.801,158.300 187.889 M129.100 190.682 C 129.595 190.778,130.405 190.778,130.900 190.682 C 131.395 190.587,130.990 190.509,130.000 190.509 C 129.010 190.509,128.605 190.587,129.100 190.682 M214.900 190.676 C 215.285 190.776,215.915 190.776,216.300 190.676 C 216.685 190.575,216.370 190.493,215.600 190.493 C 214.830 190.493,214.515 190.575,214.900 190.676 M270.900 190.676 C 271.285 190.776,271.915 190.776,272.300 190.676 C 272.685 190.575,272.370 190.493,271.600 190.493 C 270.830 190.493,270.515 190.575,270.900 190.676" id="path2"/><path data-index="3" fill-rule="evenodd" fill="#fcb484" stroke="none" d="M102.667 177.867 C 102.297 178.236,102.329 190.400,102.700 190.401 C 102.865 190.401,102.946 187.590,102.880 184.153 L 102.760 177.905 106.809 178.068 C 109.035 178.157,110.529 178.101,110.129 177.943 C 109.198 177.577,103.020 177.513,102.667 177.867 M117.600 177.905 C 117.600 178.101,118.149 178.181,118.820 178.082 L 120.040 177.903 119.920 184.152 C 119.854 187.589,119.940 190.401,120.110 190.401 C 120.281 190.400,120.371 187.565,120.310 184.100 L 120.200 177.800 118.900 177.675 C 118.185 177.606,117.600 177.710,117.600 177.905 M127.200 178.006 C 126.778 178.282,127.015 178.323,128.000 178.142 C 129.725 177.825,130.051 177.598,128.767 177.606 C 128.235 177.609,127.530 177.789,127.200 178.006 M130.033 177.747 C 130.125 177.828,130.920 178.004,131.800 178.138 C 132.915 178.307,133.158 178.271,132.600 178.019 C 131.832 177.671,129.690 177.444,130.033 177.747 M137.600 177.905 C 137.600 178.101,138.149 178.181,138.820 178.082 L 140.040 177.903 139.920 184.152 C 139.854 187.589,139.940 190.401,140.110 190.401 C 140.281 190.400,140.371 187.565,140.310 184.100 L 140.200 177.800 138.900 177.675 C 138.185 177.606,137.600 177.710,137.600 177.905 M142.278 177.856 C 141.887 178.247,141.931 180.000,142.332 180.000 C 142.514 180.000,142.649 179.595,142.632 179.100 C 142.600 178.213,142.672 178.200,147.600 178.200 C 152.528 178.200,152.600 178.213,152.568 179.100 C 152.551 179.595,152.698 180.000,152.895 180.000 C 153.092 180.000,153.196 179.505,153.127 178.900 L 153.000 177.800 147.778 177.689 C 144.905 177.628,142.430 177.703,142.278 177.856 M157.968 178.300 C 157.518 178.896,157.522 178.925,157.999 178.500 C 158.822 177.767,160.693 177.885,161.168 178.700 C 161.392 179.085,161.581 179.211,161.588 178.980 C 161.628 177.608,158.882 177.092,157.968 178.300 M168.286 177.848 C 167.903 178.230,167.917 190.400,168.300 190.401 C 168.465 190.401,168.546 187.598,168.480 184.172 L 168.360 177.943 169.480 178.072 L 170.600 178.200 170.825 183.200 L 171.051 188.200 171.025 183.000 L 171.000 177.800 169.786 177.681 C 169.118 177.616,168.443 177.691,168.286 177.848 M184.267 177.867 C 183.897 178.236,183.929 190.400,184.300 190.401 C 184.465 190.401,184.546 187.584,184.480 184.141 L 184.360 177.881 188.480 178.077 C 190.746 178.185,192.060 178.143,191.400 177.984 C 189.839 177.608,184.611 177.522,184.267 177.867 M197.869 177.887 C 197.762 178.059,199.751 178.144,202.289 178.075 L 206.903 177.950 206.707 178.975 C 206.599 179.539,206.678 180.000,206.882 180.000 C 207.086 180.000,207.196 179.505,207.127 178.900 L 207.000 177.800 202.532 177.687 C 200.074 177.625,197.976 177.715,197.869 177.887 M213.200 178.006 C 212.778 178.282,213.015 178.323,214.000 178.142 C 215.725 177.825,216.051 177.598,214.767 177.606 C 214.235 177.609,213.530 177.789,213.200 178.006 M217.724 178.171 C 220.220 178.842,220.784 179.388,219.898 180.274 C 219.336 180.835,219.059 180.864,218.163 180.456 C 217.577 180.189,217.024 180.043,216.935 180.131 C 216.847 180.220,217.333 180.524,218.016 180.807 C 219.389 181.375,221.235 180.228,220.600 179.200 C 220.197 178.548,217.838 177.594,216.713 177.627 C 216.211 177.642,216.666 177.887,217.724 178.171 M223.469 177.887 C 223.362 178.059,225.351 178.144,227.889 178.075 L 232.503 177.950 232.307 178.975 C 232.199 179.539,232.278 180.000,232.482 180.000 C 232.686 180.000,232.796 179.505,232.727 178.900 L 232.600 177.800 228.132 177.687 C 225.674 177.625,223.576 177.715,223.469 177.887 M235.467 177.867 C 235.097 178.236,235.129 190.400,235.500 190.401 C 235.665 190.401,235.746 187.584,235.680 184.141 L 235.560 177.881 239.680 178.077 C 241.946 178.185,243.260 178.143,242.600 177.984 C 241.039 177.608,235.811 177.522,235.467 177.867 M246.880 178.080 C 246.326 178.634,246.251 179.461,246.730 179.757 C 246.911 179.869,247.046 179.564,247.030 179.080 C 247.001 178.216,247.098 178.200,252.262 178.200 C 255.157 178.200,257.441 178.065,257.339 177.900 C 257.016 177.380,247.415 177.545,246.880 178.080 M259.486 177.848 C 259.103 178.230,259.117 190.400,259.500 190.401 C 259.665 190.401,259.746 187.611,259.680 184.201 L 259.561 178.000 260.780 178.000 L 262.000 178.000 262.000 183.967 C 262.000 187.643,261.843 190.011,261.590 190.137 C 261.365 190.249,261.410 190.293,261.690 190.237 C 262.077 190.158,262.200 188.644,262.200 183.967 L 262.200 177.800 260.986 177.681 C 260.318 177.616,259.643 177.691,259.486 177.848 M268.800 178.006 C 268.378 178.282,268.615 178.323,269.600 178.142 C 271.325 177.825,271.651 177.598,270.367 177.606 C 269.835 177.609,269.130 177.789,268.800 178.006 M272.033 177.744 C 272.125 177.823,272.740 178.008,273.400 178.156 C 274.276 178.352,274.438 178.315,274.000 178.018 C 273.460 177.653,271.632 177.398,272.033 177.744 M280.643 178.233 C 280.292 179.147,280.344 189.918,280.700 190.139 C 280.865 190.241,281.000 187.599,281.000 184.268 C 281.000 177.402,281.289 176.853,283.740 179.063 L 285.000 180.200 283.825 178.900 C 282.571 177.512,281.042 177.191,280.643 178.233 M289.467 177.867 C 289.320 178.013,289.200 179.543,289.200 181.267 C 289.200 184.981,289.153 185.000,286.665 182.300 L 284.730 180.200 286.613 182.500 C 289.246 185.714,289.600 185.578,289.600 181.355 L 289.600 177.909 290.779 178.082 C 291.427 178.177,291.867 178.108,291.755 177.928 C 291.512 177.535,289.843 177.490,289.467 177.867 M124.406 179.794 C 123.663 180.561,123.132 181.237,123.227 181.298 C 123.322 181.358,124.056 180.731,124.859 179.904 C 125.661 179.077,126.191 178.400,126.037 178.400 C 125.883 178.400,125.149 179.027,124.406 179.794 M134.009 178.946 C 134.512 179.609,134.471 179.775,133.643 180.446 C 133.130 180.861,132.883 181.200,133.094 181.200 C 134.206 181.200,134.970 179.597,134.195 178.888 C 133.478 178.232,133.470 178.234,134.009 178.946 M210.707 179.567 C 209.988 180.209,209.490 180.794,209.600 180.867 C 209.710 180.940,210.402 180.415,211.137 179.700 C 212.800 178.084,212.478 177.984,210.707 179.567 M275.400 178.968 C 275.840 179.329,276.537 180.023,276.949 180.512 L 277.698 181.400 277.120 180.429 C 276.802 179.895,276.105 179.201,275.571 178.886 C 274.645 178.339,274.637 178.343,275.400 178.968 M113.282 179.819 C 113.658 180.262,114.235 181.248,114.567 182.012 C 114.898 182.775,115.176 183.166,115.184 182.880 C 115.208 182.099,114.149 180.216,113.326 179.578 C 112.634 179.040,112.632 179.052,113.282 179.819 M265.596 180.500 C 265.160 181.215,264.802 181.965,264.801 182.167 C 264.800 182.623,264.856 182.548,265.914 180.700 C 266.966 178.863,266.697 178.694,265.596 180.500 M105.371 180.532 C 105.259 180.824,105.221 182.669,105.287 184.632 L 105.407 188.200 105.603 184.099 C 105.798 180.032,105.764 179.507,105.371 180.532 M108.000 180.155 C 108.000 180.240,108.530 180.387,109.179 180.482 C 109.827 180.577,110.267 180.508,110.155 180.328 C 109.957 180.007,108.000 179.850,108.000 180.155 M126.769 181.169 C 126.126 181.812,125.607 182.577,125.616 182.869 C 125.625 183.161,125.899 182.909,126.224 182.308 C 126.550 181.708,127.308 180.950,127.908 180.624 C 128.509 180.299,128.761 180.025,128.469 180.016 C 128.177 180.007,127.412 180.526,126.769 181.169 M145.590 180.263 C 145.836 180.385,146.000 182.369,146.000 185.210 C 146.000 187.818,146.135 190.037,146.300 190.139 C 146.465 190.242,146.510 188.062,146.400 185.295 C 146.256 181.667,146.058 180.236,145.690 180.162 C 145.410 180.106,145.364 180.151,145.590 180.263 M148.999 180.500 C 148.684 181.398,148.592 190.331,148.900 190.139 C 149.065 190.037,149.200 187.818,149.200 185.210 C 149.200 181.790,149.339 180.410,149.700 180.265 C 150.092 180.107,150.089 180.056,149.687 180.032 C 149.406 180.014,149.096 180.225,148.999 180.500 M187.067 180.267 C 186.700 180.633,186.729 184.309,187.100 184.538 C 187.265 184.640,187.400 183.661,187.400 182.362 C 187.400 181.063,187.385 180.000,187.367 180.000 C 187.348 180.000,187.213 180.120,187.067 180.267 M190.069 180.391 C 190.656 180.569,191.376 180.837,191.669 180.987 C 191.961 181.137,191.851 180.976,191.424 180.630 C 190.996 180.283,190.276 180.015,189.824 180.034 C 189.163 180.062,189.211 180.133,190.069 180.391 M200.267 180.267 C 198.844 181.689,200.500 183.200,203.480 183.200 C 205.733 183.200,206.000 183.285,206.000 184.000 C 206.000 184.715,205.733 184.800,203.480 184.800 C 202.053 184.800,200.752 185.008,200.480 185.280 C 199.927 185.833,199.837 187.452,200.342 187.764 C 200.530 187.881,200.606 187.565,200.510 187.064 C 200.260 185.755,201.098 185.262,203.814 185.123 C 206.060 185.007,206.200 184.941,206.200 184.000 C 206.200 183.059,206.060 182.993,203.814 182.877 C 201.092 182.738,200.260 182.246,200.512 180.924 C 200.703 179.929,200.676 179.857,200.267 180.267 M225.867 180.267 C 224.444 181.689,226.100 183.200,229.080 183.200 C 231.333 183.200,231.600 183.285,231.600 184.000 C 231.600 184.715,231.333 184.800,229.080 184.800 C 227.653 184.800,226.352 185.008,226.080 185.280 C 225.527 185.833,225.437 187.452,225.942 187.764 C 226.130 187.881,226.206 187.565,226.110 187.064 C 225.860 185.755,226.698 185.262,229.414 185.123 C 231.660 185.007,231.800 184.941,231.800 184.000 C 231.800 183.059,231.660 182.993,229.414 182.877 C 226.692 182.738,225.860 182.246,226.112 180.924 C 226.303 179.929,226.276 179.857,225.867 180.267 M238.267 180.267 C 237.900 180.633,237.929 184.309,238.300 184.538 C 238.465 184.640,238.600 183.661,238.600 182.362 C 238.600 181.063,238.585 180.000,238.567 180.000 C 238.548 180.000,238.413 180.120,238.267 180.267 M241.269 180.391 C 241.856 180.569,242.576 180.837,242.869 180.987 C 243.161 181.137,243.051 180.976,242.624 180.630 C 242.196 180.283,241.476 180.015,241.024 180.034 C 240.363 180.062,240.411 180.133,241.269 180.391 M250.386 180.774 C 250.614 181.199,250.800 183.539,250.800 185.974 C 250.800 188.408,250.935 190.400,251.100 190.401 C 251.330 190.401,251.092 180.567,250.852 180.100 C 250.823 180.045,250.614 180.000,250.386 180.000 C 250.100 180.000,250.100 180.240,250.386 180.774 M194.600 182.400 C 194.600 183.458,194.732 184.116,194.894 183.862 C 195.056 183.608,195.188 182.950,195.188 182.400 C 195.188 181.850,195.056 181.192,194.894 180.938 C 194.732 180.684,194.600 181.342,194.600 182.400 M245.800 182.400 C 245.800 183.458,245.932 184.116,246.094 183.862 C 246.480 183.255,246.484 180.899,246.100 180.662 C 245.935 180.560,245.800 181.342,245.800 182.400 M159.911 181.974 C 160.282 182.620,160.640 183.093,160.707 183.026 C 160.924 182.809,159.883 180.800,159.554 180.800 C 159.380 180.800,159.540 181.328,159.911 181.974 M209.043 182.233 C 208.710 183.101,208.748 185.299,209.106 185.862 C 209.268 186.116,209.400 185.261,209.400 183.962 C 209.400 181.361,209.392 181.323,209.043 182.233 M277.800 184.000 C 277.800 185.278,277.932 186.116,278.094 185.862 C 278.256 185.608,278.388 184.770,278.388 184.000 C 278.388 183.230,278.256 182.392,278.094 182.138 C 277.932 181.884,277.800 182.722,277.800 184.000 M122.914 183.800 C 122.917 184.900,122.995 185.303,123.087 184.695 C 123.179 184.086,123.177 183.186,123.082 182.695 C 122.987 182.203,122.911 182.700,122.914 183.800 M267.443 182.633 C 267.115 183.487,267.147 184.897,267.506 185.462 C 267.668 185.716,267.800 185.041,267.800 183.962 C 267.800 181.781,267.787 181.735,267.443 182.633 M112.093 184.000 C 112.093 184.770,112.175 185.085,112.276 184.700 C 112.376 184.315,112.376 183.685,112.276 183.300 C 112.175 182.915,112.093 183.230,112.093 184.000 M275.293 184.000 C 275.293 184.770,275.375 185.085,275.476 184.700 C 275.576 184.315,275.576 183.685,275.476 183.300 C 275.375 182.915,275.293 183.230,275.293 184.000 M157.843 183.833 C 157.509 184.702,157.538 185.600,157.900 185.599 C 158.065 185.599,158.219 185.059,158.243 184.399 C 158.291 183.048,158.196 182.913,157.843 183.833 M283.200 183.600 C 283.200 183.820,283.387 183.955,283.615 183.900 C 283.843 183.845,284.878 184.708,285.915 185.819 C 286.952 186.929,287.444 187.379,287.008 186.819 C 284.735 183.895,283.200 182.598,283.200 183.600 M160.976 184.168 C 161.120 184.609,161.008 185.075,160.714 185.262 C 160.336 185.502,160.385 185.589,160.900 185.594 C 161.689 185.601,161.802 184.897,161.156 184.000 C 160.803 183.508,160.770 183.539,160.976 184.168 M132.109 185.600 C 132.109 186.590,132.187 186.995,132.282 186.500 C 132.378 186.005,132.378 185.195,132.282 184.700 C 132.187 184.205,132.109 184.610,132.109 185.600 M134.338 186.213 C 134.422 187.560,134.285 188.657,133.989 189.013 C 133.703 189.358,133.670 189.600,133.908 189.600 C 134.132 189.600,134.424 189.315,134.557 188.967 C 134.905 188.062,134.858 184.000,134.500 183.999 C 134.335 183.999,134.262 184.995,134.338 186.213 M212.000 185.956 C 212.000 186.335,213.955 188.199,214.111 187.968 C 214.174 187.876,213.724 187.316,213.112 186.726 C 212.501 186.135,212.000 185.788,212.000 185.956 M187.043 187.033 C 186.909 187.381,186.800 188.176,186.800 188.799 C 186.800 189.423,186.615 190.025,186.390 190.137 C 186.165 190.249,186.210 190.294,186.490 190.239 C 186.770 190.183,187.090 189.432,187.200 188.569 C 187.448 186.626,188.755 186.207,189.997 187.672 C 190.430 188.182,191.158 189.050,191.616 189.600 L 192.447 190.600 191.750 189.400 C 190.110 186.579,187.685 185.360,187.043 187.033 M240.000 186.760 C 238.290 186.988,238.193 187.070,238.067 188.397 C 237.995 189.165,237.725 189.943,237.467 190.127 C 237.149 190.355,237.191 190.410,237.600 190.300 C 237.963 190.202,238.249 189.557,238.324 188.669 C 238.442 187.273,238.522 187.198,239.924 187.160 C 240.736 187.138,241.850 186.976,242.400 186.800 C 243.614 186.411,242.729 186.396,240.000 186.760 M209.613 187.033 C 209.630 187.520,210.413 188.463,211.400 189.185 C 211.840 189.506,211.660 189.147,211.000 188.387 C 210.340 187.626,209.755 186.928,209.700 186.835 C 209.645 186.743,209.606 186.832,209.613 187.033 M112.894 188.412 C 112.175 189.065,111.725 189.594,111.894 189.587 C 112.295 189.571,113.260 188.778,113.949 187.900 C 114.748 186.881,114.380 187.059,112.894 188.412 M156.349 187.865 C 155.853 188.467,155.884 188.486,156.674 188.065 C 158.039 187.338,161.594 187.479,162.569 188.300 C 163.399 188.999,163.399 188.999,162.638 188.100 C 161.652 186.935,157.252 186.771,156.349 187.865 M193.746 188.468 C 194.481 189.499,194.644 189.996,194.296 190.136 C 194.004 190.254,194.089 190.350,194.500 190.368 C 195.479 190.413,195.365 190.011,193.940 188.400 L 192.701 187.000 193.746 188.468 M219.971 187.700 C 220.407 188.279,220.407 188.521,219.971 189.100 C 219.469 189.767,219.480 189.767,220.208 189.100 C 220.959 188.411,220.959 188.389,220.208 187.700 C 219.480 187.033,219.469 187.033,219.971 187.700 M124.396 188.595 C 124.959 189.274,127.181 190.559,127.395 190.329 C 127.461 190.258,126.691 189.691,125.683 189.069 C 124.675 188.447,124.096 188.233,124.396 188.595 M176.790 188.263 C 177.016 188.375,177.200 188.797,177.200 189.200 C 177.200 189.603,177.016 190.025,176.790 190.137 C 176.565 190.249,176.610 190.293,176.890 190.237 C 177.171 190.180,177.400 189.713,177.400 189.200 C 177.400 188.687,177.171 188.220,176.890 188.163 C 176.610 188.107,176.565 188.151,176.790 188.263 M109.600 190.000 C 108.776 190.264,108.741 190.326,109.400 190.354 C 109.840 190.373,110.470 190.213,110.800 190.000 C 111.501 189.547,111.014 189.547,109.600 190.000" id="path3"/><path data-index="4" fill-rule="evenodd" fill="#fcddc6" stroke="none" d="M104.500 177.494 C 105.545 177.576,107.255 177.576,108.300 177.494 C 109.345 177.412,108.490 177.344,106.400 177.344 C 104.310 177.344,103.455 177.412,104.500 177.494 M117.384 177.627 C 117.239 177.861,117.228 178.161,117.360 178.293 C 117.492 178.425,117.600 178.304,117.600 178.025 C 117.600 177.674,118.087 177.562,119.166 177.665 C 120.028 177.748,120.647 177.676,120.543 177.507 C 120.255 177.042,117.685 177.139,117.384 177.627 M128.291 177.489 C 129.001 177.577,130.261 177.579,131.091 177.492 C 131.921 177.405,131.340 177.333,129.800 177.331 C 128.260 177.329,127.581 177.400,128.291 177.489 M137.384 177.627 C 137.239 177.861,137.228 178.161,137.360 178.293 C 137.492 178.425,137.600 178.304,137.600 178.025 C 137.600 177.674,138.087 177.562,139.166 177.665 C 140.028 177.748,140.647 177.676,140.543 177.507 C 140.255 177.042,137.685 177.139,137.384 177.627 M144.900 177.497 C 146.385 177.574,148.815 177.574,150.300 177.497 C 151.785 177.420,150.570 177.357,147.600 177.357 C 144.630 177.357,143.415 177.420,144.900 177.497 M158.900 177.476 C 159.285 177.576,159.915 177.576,160.300 177.476 C 160.685 177.375,160.370 177.293,159.600 177.293 C 158.830 177.293,158.515 177.375,158.900 177.476 M168.900 177.476 C 169.285 177.576,169.915 177.576,170.300 177.476 C 170.685 177.375,170.370 177.293,169.600 177.293 C 168.830 177.293,168.515 177.375,168.900 177.476 M186.112 177.495 C 187.164 177.577,188.784 177.576,189.712 177.492 C 190.640 177.408,189.780 177.341,187.800 177.342 C 185.820 177.343,185.060 177.412,186.112 177.495 M197.467 177.467 C 197.320 177.613,197.203 177.928,197.206 178.167 C 197.210 178.434,197.331 178.414,197.521 178.114 C 197.726 177.792,199.378 177.584,202.415 177.499 L 207.000 177.371 202.367 177.286 C 199.818 177.238,197.613 177.320,197.467 177.467 M212.100 177.996 C 211.385 178.432,210.800 178.885,210.800 179.003 C 210.800 179.122,211.286 178.899,211.880 178.509 C 212.521 178.088,214.106 177.704,215.780 177.565 L 218.600 177.329 216.000 177.266 C 214.031 177.218,213.084 177.395,212.100 177.996 M223.067 177.467 C 222.920 177.613,222.803 177.928,222.806 178.167 C 222.810 178.434,222.931 178.414,223.121 178.114 C 223.326 177.792,224.978 177.584,228.015 177.499 L 232.600 177.371 227.967 177.286 C 225.418 177.238,223.213 177.320,223.067 177.467 M237.312 177.495 C 238.364 177.577,239.984 177.576,240.912 177.492 C 241.840 177.408,240.980 177.341,239.000 177.342 C 237.020 177.343,236.260 177.412,237.312 177.495 M246.491 177.669 C 246.221 177.939,246.000 178.407,246.000 178.709 C 246.000 179.104,245.703 179.025,244.946 178.429 C 244.366 177.973,243.601 177.607,243.246 177.616 C 242.891 177.624,243.149 177.870,243.819 178.162 C 246.070 179.143,247.105 182.193,245.978 184.526 C 245.570 185.370,245.577 185.374,246.178 184.624 C 246.520 184.196,246.800 183.161,246.800 182.324 C 246.800 180.815,246.815 180.800,248.387 180.800 L 249.975 180.800 250.107 185.401 L 250.240 190.001 250.220 185.301 L 250.200 180.600 248.400 180.400 C 246.711 180.212,246.600 180.126,246.600 179.000 L 246.600 177.800 251.969 177.688 C 255.981 177.604,257.429 177.705,257.699 178.088 C 257.974 178.478,258.022 178.457,257.898 178.000 C 257.679 177.197,247.265 176.895,246.491 177.669 M258.985 177.694 C 258.872 177.991,258.828 181.016,258.889 184.417 L 259.000 190.600 260.800 190.600 L 262.600 190.600 262.600 184.000 L 262.600 177.400 260.896 177.277 C 259.743 177.193,259.126 177.328,258.985 177.694 M267.800 177.944 C 267.140 178.352,266.243 179.116,265.806 179.643 C 265.087 180.510,265.124 180.502,266.206 179.549 C 271.040 175.293,277.731 177.728,278.435 184.000 L 278.682 186.200 278.741 184.254 C 278.901 178.955,272.314 175.156,267.800 177.944 M280.489 177.536 C 280.103 177.782,280.006 179.402,280.089 184.230 L 280.200 190.600 281.703 190.642 L 283.207 190.684 281.793 190.517 L 280.380 190.351 280.490 184.075 L 280.600 177.800 281.761 177.668 C 282.705 177.560,283.216 177.859,284.494 179.268 L 286.065 181.000 284.584 179.100 C 283.101 177.196,281.805 176.701,280.489 177.536 M289.600 177.356 C 289.600 177.442,290.217 177.585,290.972 177.673 C 291.727 177.761,292.256 177.690,292.148 177.516 C 291.955 177.203,289.600 177.055,289.600 177.356 M125.400 178.337 C 124.740 178.740,123.930 179.413,123.600 179.831 C 123.202 180.335,123.420 180.256,124.246 179.596 C 124.932 179.048,125.832 178.386,126.246 178.124 C 126.661 177.861,126.910 177.637,126.800 177.625 C 126.690 177.613,126.060 177.933,125.400 178.337 M192.400 178.035 C 192.950 178.247,193.821 178.910,194.336 179.510 C 195.071 180.367,195.177 180.412,194.832 179.721 C 194.307 178.666,192.858 177.590,192.011 177.625 C 191.675 177.639,191.850 177.824,192.400 178.035 M219.700 178.390 C 221.032 179.452,221.089 180.152,219.911 180.977 C 219.422 181.320,219.214 181.600,219.449 181.600 C 221.374 181.600,221.462 179.204,219.578 178.090 C 218.769 177.612,218.790 177.664,219.700 178.390 M262.400 184.000 L 262.400 190.400 260.800 190.400 L 259.200 190.400 259.200 184.000 L 259.200 177.600 260.800 177.600 L 262.400 177.600 262.400 184.000 M102.184 184.300 L 102.200 190.600 106.400 190.620 L 110.600 190.641 106.510 190.507 L 102.420 190.373 102.294 184.186 L 102.169 177.999 102.184 184.300 M167.784 184.300 L 167.800 190.600 172.800 190.600 L 177.800 190.600 177.800 189.200 L 177.800 187.800 174.712 187.683 L 171.624 187.567 171.492 182.683 L 171.360 177.800 171.380 182.800 L 171.400 187.800 174.500 187.917 L 177.600 188.034 177.600 189.217 L 177.600 190.400 172.810 190.400 L 168.020 190.400 167.894 184.200 L 167.769 177.999 167.784 184.300 M183.784 184.300 L 183.800 190.600 185.600 190.600 C 187.391 190.600,187.401 190.593,187.524 189.100 C 187.704 186.922,189.349 186.978,190.896 189.215 C 193.065 192.351,196.426 191.330,194.408 188.148 C 193.743 187.100,193.200 186.417,193.200 186.629 C 193.200 186.841,193.650 187.677,194.200 188.486 C 195.490 190.385,195.485 190.400,193.606 190.400 C 192.189 190.400,191.894 190.222,190.953 188.800 C 190.066 187.460,189.675 187.200,188.547 187.200 C 187.242 187.200,187.200 187.250,187.200 188.800 C 187.200 190.398,187.198 190.400,185.610 190.400 L 184.020 190.400 183.894 184.200 L 183.769 177.999 183.784 184.300 M207.246 178.883 C 207.201 179.953,207.162 179.968,204.100 180.083 C 201.049 180.198,200.998 180.217,200.873 181.300 C 200.747 182.396,200.756 182.400,203.073 182.326 L 205.400 182.252 203.300 182.105 C 199.528 181.841,200.299 180.400,204.213 180.400 C 207.362 180.400,207.888 180.098,207.480 178.523 C 207.356 178.043,207.277 178.164,207.246 178.883 M232.846 178.883 C 232.801 179.953,232.762 179.968,229.700 180.083 C 226.649 180.198,226.598 180.217,226.473 181.300 C 226.347 182.396,226.356 182.400,228.673 182.326 L 231.000 182.252 228.900 182.105 C 225.128 181.841,225.899 180.400,229.813 180.400 C 232.962 180.400,233.488 180.098,233.080 178.523 C 232.956 178.043,232.877 178.164,232.846 178.883 M234.984 184.300 L 235.000 190.600 236.800 190.600 C 238.591 190.600,238.601 190.593,238.724 189.100 C 238.846 187.626,238.878 187.600,240.524 187.594 C 241.446 187.591,242.449 187.430,242.754 187.237 C 243.095 187.021,242.558 186.958,241.354 187.075 C 238.528 187.347,238.400 187.430,238.400 188.987 C 238.400 190.367,238.363 190.400,236.810 190.400 L 235.220 190.400 235.094 184.200 L 234.969 177.999 234.984 184.300 M120.960 184.200 C 120.961 187.500,121.022 188.797,121.098 187.082 C 121.173 185.367,121.172 182.667,121.097 181.082 C 121.021 179.497,120.959 180.900,120.960 184.200 M134.598 179.069 C 134.760 179.666,134.548 180.212,133.917 180.818 C 133.049 181.652,133.045 181.675,133.853 181.260 C 134.938 180.703,135.320 179.719,134.782 178.866 C 134.431 178.309,134.400 178.342,134.598 179.069 M140.794 184.200 L 140.600 190.200 138.937 190.200 C 138.023 190.200,137.359 190.335,137.461 190.500 C 137.783 191.019,140.281 190.826,140.762 190.245 C 141.075 189.869,141.185 187.850,141.105 183.945 L 140.987 178.200 140.794 184.200 M161.600 178.484 C 161.600 178.916,162.815 181.600,163.011 181.600 C 163.121 181.600,162.933 180.934,162.593 180.121 C 161.993 178.686,161.600 178.038,161.600 178.484 M292.394 184.200 L 292.200 190.200 290.800 190.447 L 289.400 190.695 290.651 190.747 C 292.670 190.832,292.835 190.287,292.705 183.945 L 292.587 178.200 292.394 184.200 M156.200 180.661 C 155.864 181.465,155.682 182.215,155.795 182.328 C 155.908 182.441,156.000 182.435,156.000 182.316 C 156.000 182.196,156.272 181.446,156.605 180.649 C 156.938 179.852,157.121 179.200,157.011 179.200 C 156.901 179.200,156.536 179.858,156.200 180.661 M141.600 179.943 C 141.600 180.380,142.462 180.671,144.400 180.888 C 145.391 180.999,145.402 181.046,145.626 185.800 L 145.852 190.600 145.826 185.600 L 145.800 180.600 144.205 180.470 C 143.328 180.399,142.383 180.152,142.105 179.921 C 141.750 179.627,141.600 179.633,141.600 179.943 M152.973 179.980 C 152.768 180.182,151.880 180.404,151.000 180.473 L 149.400 180.600 149.374 185.600 L 149.348 190.600 149.574 185.800 L 149.800 181.000 151.493 180.774 C 153.154 180.552,153.923 180.189,153.540 179.807 C 153.434 179.700,153.179 179.778,152.973 179.980 M209.196 180.900 C 208.680 181.745,208.422 182.830,208.458 184.000 L 208.513 185.800 208.760 183.776 C 208.896 182.664,209.325 181.269,209.713 180.676 C 210.101 180.084,210.322 179.600,210.203 179.600 C 210.085 179.600,209.632 180.185,209.196 180.900 M257.600 179.933 C 257.600 180.214,256.841 180.428,255.700 180.470 L 253.800 180.540 255.554 180.696 C 257.220 180.843,258.464 180.331,257.873 179.740 C 257.723 179.590,257.600 179.677,257.600 179.933 M105.769 180.935 C 105.656 181.230,105.617 182.895,105.682 184.635 L 105.800 187.800 107.303 187.842 L 108.807 187.884 107.403 187.718 L 106.000 187.552 106.000 184.199 L 106.000 180.846 107.700 180.693 L 109.400 180.540 107.687 180.470 C 106.573 180.424,105.903 180.587,105.769 180.935 M187.359 180.962 C 186.702 182.676,187.369 184.199,188.800 184.252 L 190.200 184.304 188.900 184.127 C 187.688 183.961,187.600 183.845,187.600 182.400 C 187.600 180.952,187.685 180.840,188.900 180.689 L 190.200 180.528 188.887 180.464 C 188.081 180.425,187.492 180.617,187.359 180.962 M213.544 181.224 L 212.600 182.047 213.800 181.345 C 215.379 180.420,215.403 180.400,214.911 180.400 C 214.679 180.400,214.064 180.771,213.544 181.224 M238.559 180.962 C 237.902 182.676,238.569 184.199,240.000 184.252 L 241.400 184.304 240.100 184.127 C 238.888 183.961,238.800 183.845,238.800 182.400 C 238.800 180.952,238.885 180.840,240.100 180.689 L 241.400 180.528 240.087 180.464 C 239.281 180.425,238.692 180.617,238.559 180.962 M269.054 181.229 C 268.474 181.685,268.011 182.360,268.025 182.729 C 268.044 183.221,268.145 183.166,268.404 182.524 C 268.598 182.043,269.261 181.375,269.878 181.040 C 270.495 180.706,270.799 180.425,270.554 180.416 C 270.309 180.407,269.634 180.773,269.054 181.229 M272.600 180.868 C 273.040 181.112,273.679 181.512,274.020 181.756 C 274.360 182.000,274.215 181.795,273.697 181.300 C 273.179 180.805,272.540 180.405,272.278 180.412 C 272.015 180.419,272.160 180.624,272.600 180.868 M110.582 181.657 C 111.517 182.393,111.652 182.756,111.536 184.219 C 111.461 185.157,111.535 185.840,111.700 185.738 C 112.866 185.017,111.261 180.800,109.820 180.800 C 109.640 180.800,109.982 181.186,110.582 181.657 M195.200 182.226 C 195.200 183.011,195.010 184.046,194.778 184.526 C 194.370 185.370,194.377 185.374,194.978 184.624 C 195.540 183.922,195.884 180.800,195.400 180.800 C 195.290 180.800,195.200 181.442,195.200 182.226 M253.685 185.676 L 253.600 190.352 252.100 190.509 L 250.600 190.666 252.113 190.733 C 254.024 190.818,254.057 190.719,253.899 185.374 L 253.770 181.000 253.685 185.676 M287.001 182.398 C 287.660 183.167,288.245 183.872,288.300 183.965 C 288.355 184.057,288.487 184.046,288.594 183.939 C 288.701 183.833,288.116 183.128,287.295 182.373 L 285.802 181.000 287.001 182.398 M158.886 182.700 C 157.937 185.240,157.928 185.200,159.413 185.200 C 160.598 185.200,160.793 185.069,160.754 184.300 C 160.719 183.623,160.662 183.573,160.524 184.100 C 160.306 184.933,158.800 185.049,158.800 184.233 C 158.800 183.020,159.271 182.361,159.815 182.813 C 160.223 183.151,160.290 183.065,160.122 182.423 C 159.826 181.291,159.375 181.392,158.886 182.700 M191.646 182.280 C 191.621 182.764,191.285 183.344,190.900 183.568 C 190.515 183.792,190.403 183.981,190.651 183.988 C 191.363 184.007,192.084 182.909,191.879 182.119 C 191.730 181.543,191.684 181.574,191.646 182.280 M242.846 182.280 C 242.821 182.764,242.485 183.344,242.100 183.568 C 241.715 183.792,241.603 183.981,241.851 183.988 C 242.563 184.007,243.284 182.909,243.079 182.119 C 242.930 181.543,242.884 181.574,242.846 182.280 M115.272 184.044 C 115.218 185.724,114.936 186.679,114.150 187.844 C 113.344 189.037,113.289 189.230,113.913 188.671 C 115.138 187.574,115.666 185.937,115.496 183.758 L 115.344 181.800 115.272 184.044 M163.228 182.200 C 163.228 182.420,163.486 183.050,163.800 183.600 C 164.114 184.150,164.372 184.420,164.372 184.200 C 164.372 183.980,164.114 183.350,163.800 182.800 C 163.486 182.250,163.228 181.980,163.228 182.200 M206.200 184.000 C 206.200 184.838,206.335 185.440,206.500 185.338 C 206.665 185.236,206.800 184.634,206.800 184.000 C 206.800 183.366,206.665 182.764,206.500 182.662 C 206.335 182.560,206.200 183.162,206.200 184.000 M212.156 182.971 C 212.035 183.285,212.004 183.960,212.086 184.471 C 212.195 185.154,212.288 185.004,212.437 183.900 C 212.647 182.347,212.536 181.981,212.156 182.971 M231.800 184.000 C 231.800 184.838,231.935 185.440,232.100 185.338 C 232.265 185.236,232.400 184.634,232.400 184.000 C 232.400 183.366,232.265 182.764,232.100 182.662 C 231.935 182.560,231.800 183.162,231.800 184.000 M264.093 184.000 C 264.093 184.770,264.175 185.085,264.276 184.700 C 264.376 184.315,264.376 183.685,264.276 183.300 C 264.175 182.915,264.093 183.230,264.093 184.000 M274.860 184.045 C 274.819 185.032,274.451 185.845,273.700 186.604 C 272.883 187.431,272.810 187.608,273.416 187.290 C 274.559 186.690,275.297 185.140,275.093 183.765 C 274.936 182.710,274.914 182.737,274.860 184.045 M131.817 184.100 C 131.708 184.595,131.570 185.540,131.510 186.200 C 131.407 187.323,131.294 187.400,129.737 187.400 C 128.823 187.400,128.159 187.535,128.261 187.700 C 129.218 189.242,131.889 187.627,132.070 185.395 C 132.211 183.667,133.416 183.017,134.622 184.018 C 134.965 184.303,135.200 184.333,135.200 184.092 C 135.200 182.888,132.082 182.896,131.817 184.100 M283.679 187.313 L 283.759 190.600 283.898 187.643 L 284.037 184.686 285.293 185.843 L 286.549 187.000 285.574 185.727 C 283.845 183.468,283.592 183.680,283.679 187.313 M126.025 184.856 C 126.011 185.216,126.315 185.855,126.700 186.275 C 127.085 186.694,127.272 186.840,127.116 186.597 C 126.960 186.355,126.656 185.717,126.441 185.178 C 126.194 184.560,126.041 184.441,126.025 184.856 M200.873 186.700 C 200.998 187.781,201.057 187.804,204.263 188.000 C 206.058 188.110,207.442 188.065,207.339 187.900 C 207.237 187.735,205.813 187.600,204.176 187.600 C 200.294 187.600,199.552 186.157,203.300 185.895 L 205.400 185.748 203.073 185.674 C 200.756 185.600,200.747 185.604,200.873 186.700 M212.646 186.111 C 212.783 186.502,213.278 187.019,213.747 187.260 C 214.477 187.635,214.516 187.619,214.018 187.149 C 213.698 186.847,213.203 186.330,212.917 186.000 C 212.465 185.478,212.430 185.492,212.646 186.111 M226.473 186.700 C 226.598 187.781,226.657 187.804,229.863 188.000 C 231.658 188.110,233.042 188.065,232.939 187.900 C 232.837 187.735,231.413 187.600,229.776 187.600 C 225.894 187.600,225.152 186.157,228.900 185.895 L 231.000 185.748 228.673 185.674 C 226.356 185.600,226.347 185.604,226.473 186.700 M216.000 187.600 L 214.600 187.895 215.876 187.947 C 216.578 187.976,217.264 187.820,217.400 187.600 C 217.536 187.380,217.592 187.224,217.524 187.253 C 217.456 187.282,216.770 187.438,216.000 187.600 M265.164 187.933 C 265.380 188.336,265.871 188.921,266.255 189.233 C 266.687 189.584,266.590 189.304,266.001 188.500 C 264.951 187.065,264.557 186.798,265.164 187.933 M287.594 188.603 C 289.187 190.521,289.321 190.645,288.886 189.796 C 288.659 189.353,288.052 188.634,287.537 188.198 C 286.633 187.434,286.635 187.448,287.594 188.603 M156.511 188.500 C 156.298 188.775,156.016 189.304,155.884 189.675 C 155.734 190.097,155.077 190.414,154.122 190.522 L 152.600 190.695 154.191 190.648 C 155.464 190.610,155.880 190.400,156.275 189.600 C 156.716 188.708,157.083 188.575,159.685 188.372 L 162.600 188.144 159.749 188.072 C 157.865 188.024,156.767 188.170,156.511 188.500 M276.000 189.260 C 275.230 189.935,274.962 190.305,275.404 190.081 C 276.135 189.711,277.947 187.978,277.562 188.016 C 277.473 188.025,276.770 188.585,276.000 189.260 M134.800 188.820 C 134.800 189.050,134.035 189.586,133.100 190.011 C 132.165 190.435,131.670 190.786,132.000 190.790 C 132.806 190.800,135.200 189.315,135.200 188.806 C 135.200 188.583,135.110 188.400,135.000 188.400 C 134.890 188.400,134.800 188.589,134.800 188.820 M166.296 189.370 C 166.482 190.342,166.400 190.400,164.847 190.400 C 163.680 190.400,163.200 190.232,163.200 189.824 C 163.200 189.507,163.022 189.137,162.805 189.003 C 162.554 188.848,162.534 189.093,162.751 189.680 C 163.209 190.916,166.500 191.063,166.732 189.858 C 166.811 189.449,166.700 188.940,166.487 188.727 C 166.237 188.477,166.169 188.704,166.296 189.370 M210.378 188.926 C 211.079 189.829,212.922 190.806,213.880 190.782 C 214.276 190.773,213.913 190.520,213.074 190.220 C 212.234 189.921,211.157 189.344,210.680 188.938 C 209.866 188.244,209.847 188.243,210.378 188.926 M267.776 190.170 C 268.204 190.517,269.014 190.782,269.576 190.759 C 270.518 190.721,270.500 190.694,269.365 190.423 C 268.686 190.261,267.876 189.996,267.565 189.834 C 267.254 189.673,267.349 189.824,267.776 190.170 M117.560 190.520 C 117.746 190.706,118.506 190.796,119.249 190.719 C 120.567 190.583,120.558 190.575,118.910 190.380 C 117.981 190.271,117.373 190.333,117.560 190.520 M197.462 190.500 C 197.564 190.665,199.786 190.800,202.400 190.800 C 205.014 190.800,207.236 190.665,207.338 190.500 C 207.440 190.335,205.218 190.200,202.400 190.200 C 199.582 190.200,197.360 190.335,197.462 190.500 M217.800 190.400 L 216.600 190.705 217.676 190.753 C 218.268 190.779,218.864 190.620,219.000 190.400 C 219.136 190.180,219.192 190.021,219.124 190.047 C 219.056 190.073,218.460 190.232,217.800 190.400 M223.062 190.500 C 223.164 190.665,225.386 190.800,228.000 190.800 C 230.614 190.800,232.836 190.665,232.938 190.500 C 233.040 190.335,230.818 190.200,228.000 190.200 C 225.182 190.200,222.960 190.335,223.062 190.500 M146.900 190.676 C 147.285 190.776,147.915 190.776,148.300 190.676 C 148.685 190.575,148.370 190.493,147.600 190.493 C 146.830 190.493,146.515 190.575,146.900 190.676 M129.300 191.076 C 129.685 191.176,130.315 191.176,130.700 191.076 C 131.085 190.975,130.770 190.893,130.000 190.893 C 129.230 190.893,128.915 190.975,129.300 191.076" id="path4"/></g></svg>